<svg xmlns="http://www.w3.org/2000/svg" width="380" height="83.4" viewBox="53.6 526.3 380 83.4"><title>logo</title><path fill="#E73137" d="M124.5 526.3l-.2 50.3c-.8 12.8-8.4 24.1-20 29.6-11.7 6-28.4 3.9-38.1-4.6C58.6 595.3 54 586 53.6 576l.1-49.7h70.8z"/><path fill="#FFF" stroke="#1D1D1B" stroke-width=".5" stroke-miterlimit="10" d="M105.3 537.9l.4 2.2c.6.1 1.3-.2 2-.1 2 0 3.7 1.2 4.4 3 .6 1.4.5 3-.2 4.3-.7 1.1-1.7 1.9-2.9 2.4.9 1.5.9 3.4 0 5-.9 1.7-2.7 2.7-4.6 2.5-1.4-.2-2.7-.9-3.6-2-1.3 1.6-3.4 2.4-5.4 1.9-.4 0-1-.5-1.1.2-1 1.2-2 2.5-2.8 3.9.7 0 1.4-.3 2-.8.4-.7.5-1.6 1.6-2 1.6-.4 3.8-.7 5.4.1.5.4.6 1.1.3 1.6-1.1 1.7-2.9 2.7-4.9 2.8-1.3 0-2.5-1.1-3.6-.1h-.2l.1.2 4.9 1.5c.6-.3.8-1 1.5-1.4 1.4-1 3.3-1.3 5-.8 0-1.6.9-3.2 2.2-4.1 1.3-.9 3-1.1 4.5-.4 1.7.7 2.8 2.4 2.9 4.3.6.1 1.1-.3 1.8-.2 1.8 0 3.4.9 4.4 2.4.7 1.5.7 3.3 0 4.9-.7 1.2-1.9 2.1-3.3 2.5 1.1 1.6 1.3 3.7.5 5.5-.9 1.7-2.7 2.7-4.6 2.6-1.6 0-3.1-.8-4.1-2.1-1.3 1.3-3.2 1.8-5 1.5-1.5-.4-2.7-1.4-3.3-2.9-.5-1.5-.3-3.2.5-4.6v-.1c-1.6-.5-2.8-1.9-3.2-3.5l-.2-1.5c-1.6-.6-3.2-1.2-4.9-1.6l-.1.1c.4.5.7 1.5 1.5 1.5.9-.1 1.8.3 2.3 1 1 1.5 1.4 3.3 1.2 5-.2.6-.9.9-1.5.7-1.9-.5-4.2-2.4-4.4-4.6.8-1-.3-1.9-.8-2.6l-.2.4v4.9c1.3.5 2.4 1.4 3.1 2.6.3.7.5 1.4.7 2.1 1.6-.6 3.3-.4 4.7.5 1.4 1 2.2 2.7 2.1 4.4-.2 2.1-1.6 3.9-3.6 4.5-.2.6.6 1 .6 1.6.5 1.5.3 3.1-.5 4.4-.9 1.3-2.3 2.2-3.9 2.3-1.7 0-3.3-.7-4.3-2.1-1.3 1.5-3.3 2.1-5.1 1.6-1.6-.4-2.8-1.7-3.3-3.3-.5-1.4-.3-3 .6-4.3-.5-.3-.9-.6-1.5-.9-1.6-1.2-2.4-3.1-2-5 .4-1.6 1.5-2.9 3-3.4 1.2-.4 2.4-.5 3.6-.1.3-.5.1-1.3.4-1.9.6-1.6 1.9-2.8 3.5-3.1.2-1.8.2-3.6.1-5.4v-.1c-.6.5-1.1 1.1-1.5 1.8.5.9.4 2-.2 2.9-1.2 1.3-2.8 2.2-4.6 2.6-.5-.1-.9-.5-.9-1-.1-1.9.6-3.7 1.9-5 .6-.5 1.4-.7 2.2-.6.5-.5.9-1 1.1-1.6-1.7.4-3.3.9-4.9 1.5-.4.5 0 1-.2 1.5-.4 1.7-1.6 3.1-3.3 3.8 1 1.4 1.3 3.3.7 5-.6 1.7-2.2 2.9-3.9 3-1.9.3-3.9-.6-4.9-2.3l-.3.1c-1.6 2.2-4.8 2.7-7 1.1-.8-.6-1.3-1.3-1.7-2.2-.6-1.6-.3-3.4.6-4.8-.4-.6-1.1-.7-1.6-1.3-1.9-1.9-1.8-4.9 0-6.8.8-.8 1.8-1.2 2.9-1.4.8.1 1.5.1 2.3 0 0-2.6 2.1-4.8 4.8-4.8.8 0 1.7.2 2.4.6 1.6.9 2.6 2.7 2.6 4.6 2-.6 4.2 0 5.5 1.6 0 .5.7.4 1.1.3 1.4-.6 3-.8 4.4-1.6-.6-.4-1.3-.6-2-.6-.7.6-1.7.9-2.6.6-1.7-.5-3.2-1.6-4.1-3.1-.2-.6.1-1.3.6-1.6 1.9-.6 4.6-.6 6 .9l.9 1.5c.6.2 1.3.4 1.9.4-1-1.5-2-3-3.2-4.4-1.7.7-3.6.4-5-.6l-.9-.9c-1.4 1.5-3.1 2.7-5.3 2.3-1.4-.3-2.6-1.3-3.4-2.5-.9-1.6-.9-3.6.1-5.2.2-.2.6-.5.1-.7-1.7-.6-2.9-1.9-3.4-3.6-.3-1.6.1-3.2 1.1-4.4 1.3-1.4 3.4-2 5.3-1.5.2-1.8 1.4-3.4 3.1-4.1 1.6-.6 3.4-.4 4.8.6 1.2 1 1.9 2.4 2.1 3.9 1.6-.4 3.4-.1 4.7.8 1.5 1.1 2.2 3.1 1.7 4.9-.5 1.7-1.9 3.1-3.6 3.7 1.1 1.4 1.4 3.3.6 5l-.6 1.4c.9 1.4 2 2.8 3.1 4.1.2-.7.2-1.4 0-2.2-.5-.2-.9-.6-1.1-1.1-.7-2.1.4-4.1 1.4-5.8.2-.3.6-.5.9-.5 1.6.5 2.1 2.5 2.3 4.1.2 1.3-.3 2.7-1.5 3.4-.1.6-.1 1.3 0 1.9 1.1-1.3 2.1-2.6 3.1-4-.7-1.1-1.1-2.4-1.1-3.8-.1-1.1.6-2 1-3-1.8-.6-3.1-2-3.4-3.9a5 5 0 0 1 1.6-4.3c1.3-1 3-1.3 4.6-.9.1-1.3.5-2.6 1.3-3.6 1.3-1.5 3.3-2 5.1-1.5 1.8.8 3 1.9 3.6 3.4z"/><path fill="#FFF" stroke="#1D1D1B" stroke-width=".5" stroke-miterlimit="10" d="M104.1 537.4c.9 1.3.9 2.9 0 4.2-.4.7-1.4 1.3-1.1 2.1.1.1.4.1.5 0 1.1-1 1.6-3.2 3.6-3 1.5-.1 2.9.6 3.7 1.8.7 1 .9 2.1.5 3.3-.3 1.2-1.2 2.1-2.3 2.5-1.5.8-3-.5-4.6-.6-.2.1-.4.3-.3.5 1.4.9 3.8.5 4.3 2.6.5 1.4.2 3-.8 4.1-1.5 1.6-3.9 1.7-5.6.3-.4-.4-.8-.9-1-1.4v-3.1c-.1-.1-.4-.2-.6-.2-.5 1.4.2 3.4-.9 4.6-1 1.1-2.6 1.5-4 1.1-1.3-.3-2.3-1.2-2.8-2.4-.5-1.3-.3-2.8.5-3.9 1-1 2.4-1 3.6-1.6.2-.1.2-.4.1-.5l-.3-.2c-1.5.3-3 1.2-4.6.4-1.2-.6-2-1.8-2.2-3.1-.2-2.2 1.3-4.1 3.5-4.3.9-.1 1.7.1 2.5.5l2.3 2.7c.2 0 .4-.1.5-.3-.5-1.1-1.4-2-2-3.1-.4-1.6.3-3.3 1.7-4.2 2.1-1.1 4.5-.6 5.8 1.2zM80.3 537.8c.5.9.8 1.9.6 2.9l-1.9 2.7c.1.2.2.3.4.3 1.5-.9 2-3.7 4.4-3.2 1.5.1 2.8.9 3.4 2.3 1 1.8.3 4.1-1.6 5.1-.4.2-.7.3-1.1.4-1.4.1-2.5-.7-3.9-.8-.2.1-.2.3-.2.5 1.3.8 3 .6 3.9 2.1 1.2 1.8.8 4.3-1 5.5-.7.5-1.5.7-2.3.7-1.5 0-2.8-.9-3.5-2.1l-.2-3.7c-.1-.2-.4-.2-.6-.1-.5 1.6.6 3.9-1 5-1.2 1.1-3 1.3-4.4.6-1.5-.7-2.4-2.2-2.4-3.8-.1-.9.3-1.8 1-2.4.5-1.4 2.3-1.1 3.4-1.7.2-.1.3-.3.1-.5l-.3-.2c-1.6.1-3.3 1.7-4.8.3-1.3-.8-2-2.2-2-3.8.2-1.6 1.4-3 2.9-3.4 1.1-.3 2.2-.2 3.1.4l2 2.6c.2 0 .6.1.6-.2-.5-1.6-2.6-2.6-1.9-4.5.4-1.2 1.2-2.2 2.4-2.7 1.9-.6 3.9 0 4.9 1.7z"/><path fill="#FFF" stroke="#1D1D1B" stroke-width=".5" stroke-miterlimit="10" d="M101.6 541.9c0 .4-.2.8-.5 1.1l-.1 2.4c-.1.2-.3.3-.5.2-.6-1.1.2-2.6-.6-3.4-.1-.4.2-.8.6-.9.4-.1.9.1 1.1.6-.1 0-.1 0 0 0zM77.9 542c-.1.4-.3.9-.5 1.3-.2.8.5 1.8-.5 2.1-.5-.8.2-2.3-.6-2.9-.1-.4.1-.9.4-1.1.5-.2.9.1 1.2.6z"/><path fill="#FFF" stroke="#1D1D1B" stroke-width=".5" stroke-miterlimit="10" d="M101 542c0 .2-.1.3-.3.3h-.1c-.1 0-.2-.1-.3-.2 0-.2.1-.3.3-.4.3 0 .4.1.4.3zM77.3 542.2c-.1.2-.2.3-.4.2h-.1c-.1-.1-.2-.2-.1-.4 0-.1.1-.1.1-.1.1-.1.3 0 .4.1.1.1.1.2.1.2zM82.3 544.9c.1.3-.1.7-.4.8-.4.2-.8.2-1.1 0-.8.4-1.8.6-2.7.6-.2-.1-.2-.2-.2-.4.9-.8 2.5-.3 3.1-1.5.3-.3.9-.3 1.2.1 0 .2 0 .3.1.4zM73.5 545.1l2.4 1c.1.1.1.3 0 .5h-.1c-1.2 0-2.3-1-3.7-.6-.3-.3-.5-.7-.3-1.1.2-.2.4-.3.6-.4.5-.2 1 .1 1.1.6zM97.5 545.4c.8.1 1.5.4 2.1.9.1.3-.3.5-.6.3-.8-.1-1.7-1-2.6-.4-.5.1-.9-.2-1-.6-.1-.4.1-.8.5-.9.8-.4 1 .4 1.6.7zM106 545.4c0 .4-.3.7-.7.8-1.1-.5-2.3.5-3.4.4-.1-.1-.2-.3-.1-.4l.1-.1c.9-.6 2.3-.5 3.1-1.4.5-.2.9.2 1 .7z"/><path fill="#FFF" stroke="#1D1D1B" stroke-width=".5" stroke-miterlimit="10" d="M81.8 545.1c0 .2-.1.3-.3.3-.2 0-.3-.1-.4-.3 0-.2.2-.3.3-.3s.4.1.4.3zM72.9 545.1c0 .2-.1.3-.2.3h-.2c-.2 0-.2-.4 0-.5.1-.1.3 0 .4.1v.1zM96.5 545.6c0 .2-.2.1-.4.1-.1-.1-.2-.3-.1-.5.2-.3.8 0 .5.4zM105.5 545.4c-.1.1 0 .4-.3.3-.2.1-.2-.1-.3-.2 0-.2.1-.3.3-.3.1-.1.2 0 .3.2zM76.5 547.7c-.4 1.1-1.6 1.8-1.5 2.9-.1.3-.4.5-.8.5-.4.1-.7-.2-.8-.5-.1-.5.2-1 .7-1.1.9-.3 1.1-1.6 2-2.1.2 0 .4.1.4.3zM80.4 549.6c.2.3.3.7.2 1.1-.2.4-.6.5-1 .3s-.7-.7-.6-1.1l-1.4-2.1c0-.3.5-.4.6-.1.8.7.9 2 2.2 1.9zM100.4 548c-.5.9-1.7 1.7-1.6 2.9-.2.4-.6.6-1 .5 0 0-.1 0-.1-.1-.4-.3-.5-.8-.3-1.2 1.1-.4 1.6-1.8 2.6-2.5.2-.1.4 0 .4.2-.1 0-.1.1 0 .2zM103.3 549.5c.4.1.8.4.9.8 0 .3-.2.6-.4.9-.5.2-1 0-1.2-.5v-.1c.2-1.1-1.1-1.6-1.1-2.7.1-.1.4-.2.5-.1l1.3 1.7z"/><path fill="#FFF" stroke="#1D1D1B" stroke-width=".5" stroke-miterlimit="10" d="M80.1 550.3c0 .1-.1.2-.2.2h-.1c-.2 0-.3-.2-.3-.4 0-.1 0-.1.1-.2.3.1.7.1.5.4zM74.6 550.3c0 .2-.1.3-.3.3h-.1c-.1 0-.4 0-.3-.3 0-.1.1-.3.3-.3.2 0 .3.2.4.3zM103.7 550.3c0 .2-.1.3-.3.3-.1 0-.3-.1-.3-.2v-.1c0-.1.1-.3.3-.3l.3.3zM98.4 550.5c-.1.2-.2.3-.4.3s-.3-.2-.3-.4v-.1c.2-.1.7-.1.7.2zM90.5 553.7c.1.6.1 1.3 0 2h-3.1c-.3-1.7.3-3.5 1.6-4.7.9.3 1.1 1.7 1.5 2.7zM72.8 559.7c.8 1 1 2.4.5 3.5l-1.7 2.3c-.1.4.1.5.3.6 1.4-.8 1.7-2.8 3.4-3 1.2-.3 2.4 0 3.4.7 1.7 1.4 2 3.9.7 5.6-.7.9-1.7 1.4-2.8 1.5l-3.3-1c-.2 0-.2.2-.3.4 0 .6.7.5 1.1.7 1.1.5 2.6.4 3.2 1.8.6 1.3.5 2.8-.2 4-1.1 1.9-3.6 2.5-5.4 1.3-.7-.4-1.2-1-1.5-1.7-.6-1-.2-2.4-.3-3.6-.2-.2-.5-.2-.7-.1-.4 1.7.3 4.6-2.1 5.3-1.1.5-2.4.5-3.4 0-1.4-.6-2.4-2-2.4-3.6.1-1.2.6-2.2 1.4-3l3.3-1.2c.1-.2 0-.4-.2-.5l-3.6.9c-1.5-.5-2.6-1.7-2.9-3.2-.1-1.3.3-2.5 1.2-3.4 1.2-1.1 2.9-1.4 4.4-.7.8.8 1.5 1.7 2.1 2.7.2.1.5 0 .6-.2-.6-1.8-2.7-2.9-1.9-4.8.5-1.5 1.8-2.7 3.4-2.8 1.4-.2 2.8.4 3.7 1.5zM111.6 560.1c.6.9.7 2.1.3 3.2l-1.8 2.3c-.1.2 0 .5.2.6h.1c1.5-1 1.7-3.4 4-3.3 1.8-.2 3.4.7 4.2 2.3.5 1.5.2 3.1-.8 4.3-.8.9-1.8 1.3-3 1.4-1-.2-2.1-.5-3.1-.9-.2.1-.4.3-.3.5 0 0 0 .1.1.1 1.2 1.1 3.4.6 4 2.5.7 1.5.3 3.3-.8 4.4-1 1-2.5 1.4-3.9 1.1-1.2-.4-2.1-1.2-2.6-2.3V573c-.1-.2-.3-.3-.5-.2h-.1c-.5 1.3.4 3.4-1 4.6-1.5 1.5-4 1.6-5.5.1s-1.6-4-.1-5.5c.9-1.1 2.5-.7 3.4-1.7 0-.6-.7-.3-1.1-.2-1.3.2-2.8 1.4-4.1.3-1.3-1.1-2.3-2.4-1.8-4.1.3-1.5 1.4-2.7 2.8-3.2 1.2-.5 2.6-.1 3.5.8l1.6 2.3c.3.1.5-.1.6-.4-.5-1.4-2.3-2.3-1.9-4.1.2-1.3 1.1-2.5 2.3-3.1 2.1-.9 4.3-.2 5.3 1.5zM82.5 559.3l-.8 2.9c-1.4.3-2.7-1.1-3.7-2-.3-.3-.8-.9-.3-1.3 1.5-.5 3.3-.4 4.8.4zM99.9 559.2c.3.3 0 .5 0 .8-1 1.2-2.3 2-3.8 2.2-.2-1.1-.6-2-1-3 1.6-.7 3.3-.7 4.8 0z"/><path fill="#FFF" stroke="#1D1D1B" stroke-width=".5" stroke-miterlimit="10" d="M70.2 564.2c-.1.4-.2.8-.3 1.1-.1.9.2 2.1-.4 2.6-.2 0-.4-.1-.4-.3-.2-1 .4-2.4-.4-3.2-.1-.4.2-.9.6-1 .4.1.8.3.9.8zM108.8 564.3c0 .4-.1.8-.4 1.1l-.2 2.5h-.5l-.1-2.6c-.3-.1-.5-.4-.5-.7 0-.4.3-.8.7-.9.5-.1.9.2 1 .6z"/><path fill="#FFF" stroke="#1D1D1B" stroke-width=".5" stroke-miterlimit="10" d="M69.7 564.3c0 .2-.1.4-.3.3-.1.1-.2 0-.3-.1v-.1c0-.2.1-.3.3-.4.1 0 .2.1.3.3zM108.2 564.7c-.1.1-.3.1-.4 0-.1-.1-.1-.3-.1-.5.2-.1.4-.1.5.1 0 .2.1.3 0 .4zM74.7 567.5c0 .4-.2.7-.6.9-1.1-.3-2.3.3-3.4.5-.2-.1-.3-.3-.2-.5.8-.5 2.3-.3 2.7-1.3.3-.3.9-.3 1.2 0 .2.1.3.2.3.4zM66.3 567.5c.7.1 1.4.4 2 .9 0 .6-.7.3-1 .2-.7-.2-1.3-.7-2.1-.3-.4 0-.7-.2-.9-.5-.2-.5.1-1 .5-1.1.8-.3 1 .5 1.5.8zM113.4 567.5c.1.4-.2.8-.6 1-1.2-.5-2.3.4-3.4.5-.2 0-.4-.2-.4-.4 0-.1 0-.2.1-.2 1-.6 2.5-.4 3.2-1.5.4-.1.9.1 1.1.6zM104.7 567.6c.8.3 2.3.2 2.4 1.3l-.3.1c-1.1-.1-2-1.1-3.1-.5-.5 0-.9-.3-1-.7-.2-.4.3-.7.6-.9.7-.2.9.5 1.4.7z"/><path fill="#FFF" stroke="#1D1D1B" stroke-width=".5" stroke-miterlimit="10" d="M74.1 567.5c.1.2-.2.3-.3.4-.1 0-.4-.1-.3-.4 0-.4.5-.4.6 0zM65.5 567.5c-.1.3-.3.5-.6.3-.1-.2 0-.4.1-.5.2 0 .4.1.5.2zM112.8 567.8c-.2.1-.4.1-.6 0 0-.1 0-.5.2-.5s.6.2.4.5zM103.8 567.7c0 .2-.1.3-.3.3-.2 0-.3-.1-.3-.3 0-.3.6-.4.6 0zM85.7 569c.3.4-.2.7-.4 1.1-.9 1-2.1 1.7-3.3 2.3-.5.2-.7-.4-.8-.8.1-1.7.9-3.2 2.3-4.2.7.7 1.5 1.2 2.2 1.6zM95.6 572.4c-1.1.3-2.3-.8-3.1-1.5-.4-.4-.7-.9-.9-1.5.8-.6 1.7-1.1 2.4-1.7 1.5 1.1 2.1 2.9 1.6 4.7zM69 570.4c-.6.8-1.6 1.5-1.5 2.7-.3.3-.7.5-1.1.3-.3-.2-.5-.4-.5-.8 0-.3.2-.7.5-.8 1-.2 1.3-1.5 2.2-2.1.4-.1.6.4.4.7zM70.5 569.8c.7.8 1.1 2.1 2.3 2.4.3.3.4.8.1 1.1-.3.3-.8.4-1.1.2-.3-.3-.4-.7-.4-1.1l-1.4-2.2c0-.2.2-.4.4-.4h.1zM109 569.8c.7.8 1.1 2.1 2.2 2.4.3.3.4.7.2 1-.3.4-.7.5-1.1.3-.4-.3-.5-.8-.4-1.2l-1.4-2c0-.3.2-.5.5-.5zM107.4 570.3c-.4 1-1.5 1.7-1.3 2.7-.1.2-.3.3-.5.3-.1-.3.3-.8-.2-1-.2-.1-.3 0-.4.2-.2.6.6.3.4.9-.4.1-.8-.2-.9-.5-.1-.4.1-.9.5-1 1-.1 1.1-1.4 1.8-1.9.2-.1.5 0 .6.3zM92.1 574c1.6 2.1-.7 3.7-1.5 5.5.1.2.2.4.4.5l.3-.1c1.1-1.1 1.4-2.9 3.2-3.2 1.4-.3 2.8.1 3.8 1.1 1.6 1.6 1.6 4.1 0 5.7-.6.6-1.4 1-2.3 1.2-1.3.2-2.3-.6-3.5-.7-.2.2-.3.5-.2.7 1.4.8 3.5.5 4.2 2.4.7 1.5.4 3.3-.7 4.6-.8.8-1.8 1.2-2.9 1.3-1.5 0-3-.8-3.7-2.2l-.1-3.8c-.2-.1-.4-.1-.6 0-.6 1.6.7 4.2-1.3 5-1.8 1.3-4.3.8-5.6-1-.5-.6-.7-1.4-.7-2.2 0-1.3.6-2.5 1.6-3.3l2.8-.9c.1-.2 0-.5-.3-.6h-.1c-1.7.3-3.9 2-5.4.1-.8-.8-1.4-1.9-1.5-3 0-1.7 1.1-3.3 2.7-3.9 1.2-.5 2.6-.3 3.6.5.6.9 1.3 1.7 2 2.5.3 0 .3-.2.5-.4-.6-1.5-2.3-2.5-1.9-4.4.4-2.2 2.4-3.6 4.6-3.2.9.1 2 .8 2.6 1.8z"/><path fill="#FFF" stroke="#1D1D1B" stroke-width=".5" stroke-miterlimit="10" d="M67 572.6c0 .2-.1.4-.3.4-.2 0-.3-.1-.4-.3-.1-.3.7-.5.7-.1zM72.5 572.8c0 .2-.1.3-.2.3h-.1l-.3-.3c0-.4.7-.4.6 0zM111 573c-.1.1-.3.2-.5.1s-.2-.3-.1-.5c0-.1.1-.1.2-.1.3 0 .6.2.4.5zM89.2 578.1c0 .4-.1.7-.3 1.1l-.1 2.5c-.1.1-.4.1-.5 0-.3-.9.3-2.3-.5-2.9-.2-.3-.2-.8 0-1.1.4-.3.9-.2 1.2.1.1.1.1.2.2.3z"/><path fill="#FFF" stroke="#1D1D1B" stroke-width=".5" stroke-miterlimit="10" d="M88.7 578.5c-.2.1-.3.1-.5 0-.1-.2 0-.4.1-.5.2 0 .4.1.4.2v.3zM93.9 581.2c.1.4-.1.8-.5 1-.4 0-.8 0-1.1-.1l-2.4.7c-.3-.1-.4-.3-.3-.5 1-.6 2.4-.6 3.2-1.7.4-.1.9.1 1.1.6zM85 581.4c.9.2 1.8.6 2.6 1.1.1.2 0 .4-.2.5h-.1c-1.1-.2-2.1-1-3.2-.5-.4 0-.8-.2-.8-.6-.1-.5.2-.9.6-1h.1c.4 0 .8.2 1 .5z"/><path fill="#FFF" stroke="#1D1D1B" stroke-width=".5" stroke-miterlimit="10" d="M93.3 581.4c0 .2-.1.3-.3.3h-.1c-.1 0-.3-.1-.3-.3.1-.5.9-.4.7 0zM84.4 581.6c.1.2 0 .3-.2.4h-.1c-.2 0-.3-.1-.3-.3-.1-.4.5-.5.6-.1zM89.5 583.8c.8.7 1.1 2 2.3 2.3.3.3.3.8.1 1.1-.3.3-.7.4-1 .2-.4-.3-.6-.8-.5-1.2l-1.4-2c0-.3.2-.7.5-.4zM88 584.3l-1.2 2c.1.6-.2 1.1-.7 1.3-.4 0-.8-.2-1-.6 0-.4.1-.7.5-.9 1-.2 1.1-1.5 1.9-2 .2-.2.4 0 .5.2z"/><path fill="#FFF" stroke="#1D1D1B" stroke-width=".5" stroke-miterlimit="10" d="M86.2 586.8c0 .2-.2.3-.3.3-.2 0-.3-.1-.3-.3 0-.5.8-.5.6 0zM91.6 586.7c0 .2-.1.3-.3.4-.2 0-.3-.2-.3-.3-.1-.4.6-.5.6-.1zM82.4 598c-.1.1-.2.1-.3.1v-.2l.3.1z"/><path d="M150 564.6c1.2 0 2.3-.3 3.4-.9.5-.4.8-1.5.8-3.3v-20.9c.1-1.1-.1-2.3-.8-3.3-1-.7-2.2-1-3.4-.9v-.9h13.3v.9c-1.2 0-2.4.3-3.4.8-.6.5-.9 1.5-.9 3.1v22.6c0 .4.1.8.2 1.1.3.3.7.6 1.1.6.4 0 .7.1 1.1.1h2.2c4.2 0 7-.3 8.5-1s2.9-2.4 4.3-5.3h1.1l-2.3 8.2H150v-.9zM179.6 564.8c1.1 0 2.2-.3 3.1-.8.4-.4.6-1.5.6-3.3v-11c0-.7 0-1.4-.2-2.1-.2-.6-.8-1-1.4-.9h-.5c-.2 0-.6.1-1.4.4v-.7l1-.3c2.7-.9 4.5-1.5 5.6-2 .3-.1.5-.2.8-.3v16.8c0 1.7.2 2.8.6 3.3.8.6 1.8.9 2.9.8v.6h-11.2l.1-.5zm3.7-30.7c.4-.5 1.1-.7 1.7-.7 1.3 0 2.4 1.1 2.4 2.4 0 .6-.2 1.2-.7 1.7-.9.9-2.4.9-3.4 0-.5-.4-.7-1.1-.7-1.7 0-.6.2-1.2.7-1.7zM208.7 546.2c1.7 1.7 2.6 4 2.4 6.3h-14.6c.2 3.5 1 6.1 2.4 7.7 1.3 1.5 3.2 2.4 5.2 2.4 1.5 0 2.9-.4 4.1-1.3 1.2-1 2.3-2.2 3.1-3.6l.8.3c-.7 2.1-1.9 3.9-3.5 5.4-1.7 1.6-4 2.5-6.3 2.5-2.6.1-5.2-1.1-6.7-3.3-1.5-2.2-2.4-4.8-2.3-7.5-.1-2.9.9-5.7 2.7-8 1.7-2.2 4.3-3.4 7.1-3.4 2 .2 4 1 5.6 2.5zm-11 1.7c-.5 1-.9 2-1.1 3.1h9.7c-.1-1.2-.4-2.4-.9-3.4-.8-1.3-2.2-2.1-3.8-2-1.6 0-3.2.9-3.9 2.3zM213.7 564.7c1 0 1.9-.3 2.8-.7.6-.7.8-1.5.7-2.4v-10.4c.1-1.1-.1-2.2-.4-3.2-.2-.6-.9-1-1.6-1-.2 0-.4 0-.6.1l-.8.1v-.8l2.7-.9 1.9-.7c.8-.3 1.5-.6 2.4-1 .1 0 .2 0 .2.1v4.3c.8-1.2 1.8-2.2 2.8-3.2.8-.7 1.8-1.1 2.8-1.1.7 0 1.4.2 1.9.7.9.9 1 2.3.2 3.3-.3.4-.9.6-1.4.6-.7 0-1.3-.3-1.8-.8-.4-.4-.8-.7-1.4-.8-.8.2-1.5.6-2 1.3-.7.7-1.1 1.7-1.1 2.7v10.4c-.1 1 .2 2 .9 2.7.9.6 2 .8 3.1.7v.8h-11.3v-.8zM242 564.9c1 0 2-.2 2.9-.7.6-.7.8-1.6.7-2.5v-23.1c.1-.7-.1-1.5-.5-2.1-.5-.3-1-.5-1.6-.4h-.8l-.7.1v-.6l2.1-.5c1.6-.4 2.9-.8 4-1.1.4-.1.8-.3 1.1-.3h.2v19.6l6.4-5.6c.3-.3.7-.6.9-1 .1-.2.2-.4.2-.6 0-.3-.2-.6-.5-.7-.6-.1-1.2-.2-1.9-.2v-.7h9.6v.6c-1.4 0-2.8.4-4.1 1-2.1 1.5-4.1 3.1-6 5l-1.4 1.2 4.2 5.5c1.5 2 3.1 3.9 4.9 5.6 1 .9 2.2 1.4 3.5 1.5v.6H255v-.6h.8c.2 0 .5-.1.7-.2.2-.1.3-.3.3-.5s0-.3-.1-.5-.2-.3-.3-.5l-7.1-9.4v8.6c-.1.9.4 1.7 1.1 2.1.8.3 1.6.4 2.4.3v.6h-11l.2-.5zM270 547.1c1.9-2.1 4.6-3.2 7.5-3.2 2.8-.1 5.5 1 7.5 3 2.1 2.1 3.1 5 3 8 0 2.9-1 5.7-2.9 7.9-1.8 2.2-4.6 3.5-7.5 3.4-2.9 0-5.6-1.2-7.5-3.4-2-2.2-3.1-5.1-3.1-8.1 0-2.8 1.1-5.5 3-7.6zm3.7-.6c-1.5 1.4-2.3 3.8-2.3 7.2 0 2.7.6 5.3 1.8 7.6 1.2 2.4 3 3.5 5.1 3.5 1.7 0 3.2-.9 4-2.4 1-1.9 1.5-4 1.4-6.2 0-2.6-.6-5.2-1.8-7.5-.8-2.1-2.9-3.5-5.1-3.5-1.1.1-2.3.5-3.1 1.3zM290.6 564.9c.8 0 1.7-.2 2.4-.6.7-.7 1-1.7.9-2.7v-11.9c.1-.8-.1-1.6-.4-2.2-.4-.4-.9-.6-1.5-.5h-.7c-.2 0-.4.1-.6.2v-.8l1.7-.5c.6-.2 1.6-.6 2.9-1.1 1.4-.5 2.1-.8 2.2-.8.1 0 .1 0 .1.1v3.5c1.2-1.1 2.5-2.1 3.9-2.9 1.1-.5 2.2-.8 3.4-.8 1.4-.1 2.8.5 3.8 1.6.6.7 1 1.5 1.2 2.4.9-.9 1.9-1.8 3-2.5 1.3-.9 2.9-1.4 4.5-1.4 2.1-.2 4.1 1 4.9 3 .6 1.7.8 3.6.7 5.4v9.5c-.1.8.2 1.6.7 2.2.8.5 1.7.8 2.6.8v.6H316v-.6c.9 0 1.9-.3 2.6-.8.5-.7.7-1.6.6-2.5v-9.9c.1-1.1-.1-2.2-.5-3.3-.6-1.3-1.9-2-3.3-1.9-1.1 0-2.1.4-3 1-.8.5-1.5 1.2-2.1 1.8V561c-.1 1 .2 2 .7 2.8.7.8 1.7 1.1 2.8 1v.6h-10.5v-.6c1 0 2-.4 2.8-1.1.4-.5.6-1.8.6-3.9v-6.4c.1-1.6-.1-3.3-.5-4.9-.4-1.4-1.7-2.4-3.2-2.3-1 0-1.9.3-2.8.8-.9.5-1.7 1.2-2.4 2v12.6c-.1.9.1 1.7.6 2.4.8.6 1.7.8 2.7.7v.6h-10.5v-.4zM327.7 564.9c.8 0 1.7-.2 2.4-.6.7-.7 1-1.7.9-2.7v-11.9c.1-.8-.1-1.6-.4-2.2-.4-.4-.9-.6-1.5-.5h-.7c-.2 0-.4.1-.6.2v-.8l1.7-.5c.6-.2 1.6-.6 2.9-1.1 1.4-.5 2.1-.8 2.2-.8.1 0 .1 0 .1.1v3.5c1.2-1.1 2.5-2.1 3.9-2.9 1.1-.5 2.2-.8 3.4-.8 1.4-.1 2.8.5 3.8 1.6.6.7 1 1.5 1.2 2.4.9-.9 1.9-1.8 3-2.5 1.3-.9 2.9-1.4 4.5-1.4 2.1-.2 4.1 1 4.9 3 .6 1.7.8 3.6.7 5.4v9.5c-.1.8.2 1.6.7 2.2.8.5 1.7.8 2.6.8v.6H353v-.6c.9 0 1.9-.3 2.6-.8.5-.7.7-1.6.6-2.5v-9.9c.1-1.1-.1-2.2-.5-3.3-.6-1.3-1.9-2-3.3-1.9-1.1 0-2.1.4-3 1-.8.5-1.5 1.2-2.1 1.8V561c-.1 1 .2 2 .7 2.8.7.8 1.7 1.1 2.8 1v.6h-10.5v-.6c1 0 2-.4 2.8-1.1.4-.5.6-1.8.6-3.9v-6.4c.1-1.6-.1-3.3-.5-4.9-.4-1.4-1.7-2.4-3.2-2.3-1 0-1.9.3-2.8.8-.9.5-1.7 1.2-2.4 2v12.6c-.1.9.1 1.7.6 2.4.8.6 1.7.8 2.7.7v.6h-10.5l.1-.4zM371.3 544.2v14.7c0 .9.1 1.7.4 2.5.6 1.2 1.8 1.9 3.1 1.8 1.1 0 2.2-.4 3.1-1 .6-.5 1.2-1 1.7-1.6V548c.1-.8-.1-1.7-.7-2.3-.8-.5-1.8-.7-2.8-.7v-.8h7.4v16.2c-.1.8.1 1.5.6 2.1.7.5 1.5.7 2.4.5v.6l-1.9.5c-.4.1-1.1.3-2 .6-.4.1-1.3.5-2.6 1-.1 0-.1 0-.1-.1V561.7c-.8 1-1.8 2-2.8 2.8-1.2.9-2.6 1.4-4.1 1.4-1.4 0-2.7-.5-3.8-1.4-1.2-.9-1.8-2.5-1.8-4.7v-11.9c.1-.9-.2-1.8-.8-2.4-.7-.4-1.4-.5-2.2-.5v-.6h6.9v-.2zM388.8 564.8c.8 0 1.6-.3 2.3-.8.5-.8.8-1.8.7-2.7v-11.7c0-.7-.1-1.4-.3-2-.4-.6-1.1-1-1.8-.9h-.4l-.5.1v-.8c.6-.2 2.1-.7 4.5-1.4l2.2-.7c.1 0 .2 0 .2.1V547.7c1-1 2.1-1.9 3.3-2.7 1.1-.7 2.4-1.1 3.7-1.1 1 0 2 .3 2.8.9 1.6 1.2 2.5 3.2 2.5 6.2v10.7c-.1.9.2 1.7.7 2.4.6.5 1.4.8 2.2.8v.6h-9.8v-.7c.8-.1 1.6-.4 2.3-.9.6-.9.8-2 .7-3v-9.8c0-1.1-.2-2.3-.7-3.3-.6-.9-1.6-1.4-2.7-1.3-1 0-1.9.3-2.7.9-.7.5-1.3 1.1-1.9 1.8V562c-.1.8.2 1.6.7 2.2.7.4 1.5.6 2.3.6v.6h-10l-.3-.6zM428.4 546.2c1.7 1.7 2.6 4 2.4 6.3h-14.6c.2 3.5 1 6.1 2.4 7.7 1.3 1.5 3.2 2.4 5.2 2.4 1.5 0 2.9-.4 4.1-1.3 1.2-1 2.3-2.2 3.1-3.6l.8.3c-.7 2.1-1.9 3.9-3.5 5.4-1.7 1.6-4 2.5-6.3 2.5-2.6.1-5.1-1.1-6.7-3.3-1.6-2.2-2.4-4.8-2.4-7.5-.1-2.9.9-5.7 2.7-8 1.7-2.2 4.3-3.4 7.1-3.4 2.1.2 4.2 1 5.7 2.5zm-11 1.7c-.5 1-.9 2-1.1 3.1h9.7c-.1-1.2-.4-2.4-.9-3.4-.8-1.3-2.2-2.1-3.8-2-1.6 0-3.1.9-3.9 2.3zM156.6 583c-.1-1.8-.7-3.1-2.3-3.1-1.6 0-2.6 1.5-2.6 5.7 0 4.3.9 5.7 2.6 5.7 1.1.2 2.1-.6 2.3-1.7v-2.5h-2V586h3.6v6.3h-1l-.2-1c-.7.8-1.6 1.2-2.7 1.1-2.6 0-4.2-1.8-4.2-6.9s1.6-6.9 4.2-6.9 3.7 2.2 3.9 4.3l-1.6.1zM160.8 578.9h3.5c2.4 0 4 1.3 4 3.4.1 1.5-.9 2.9-2.4 3.3l2.5 6.7h-1.6l-2.4-6.3-2.1.1v6.3h-1.6v-13.5zm1.6 5.8h1.4c2.3 0 3-.8 3-2.3 0-1.5-.7-2.3-3-2.3h-1.4v4.6zM171.5 594.5h-1.1l1.5-3.5c-.9-1.6-1.4-3.5-1.2-5.4 0-5 1.7-6.9 4.2-6.9.8 0 1.5.2 2.1.6l.9-2h1.1l-1.1 2.8c1 1.7 1.4 3.6 1.3 5.5 0 5-1.7 6.9-4.1 6.9-.8 0-1.6-.2-2.2-.7l-1.4 2.7zm5-13.9c-.4-.5-.9-.7-1.5-.7-1.4 0-2.6 1.1-2.6 5.7 0 1.2.1 2.4.4 3.6l3.7-8.6zm-3.2 9.8c.4.5 1 .8 1.6.8 1.4 0 2.6-1.1 2.6-5.7 0-1.3-.1-2.5-.4-3.8l-3.8 8.7zM183.8 578.9l3.8 9.9v-9.9h1.6v13.4h-1.7l-4.6-11.7v11.7h-1.6v-13.4h2.5zM194.2 578.9l3.8 9.9v-9.9h1.6v13.4h-1.7l-4.6-11.7v11.7h-1.6v-13.4h2.5zM209 578.9v1.2h-5.1v4.6h3.8v1.3h-3.8v5.2h5.3v1.2h-6.9V579h6.7v-.1zM217.8 578.9v12.2h4.8v1.2h-6.3v-13.4h1.5zM226 578.9v13.4h-1.6v-13.4h1.6zM235.7 578.9v1.2h-5.1v4.6h3.8v1.3h-3.8v5.2h5.4v1.2h-7V579h6.7v-.1zM238.2 578.9h3.5c2.4 0 4 1.3 4 3.4.1 1.5-.9 2.9-2.3 3.3l2.5 6.7h-1.7l-2.4-6.4-2.1.1v6.3h-1.6l.1-13.4zm1.6 5.8h1.3c2.3 0 3-.8 3-2.3 0-1.5-.7-2.4-3-2.4h-1.4l.1 4.7zM252 587.9v-.9h10.2v.9H252zM268.4 578.9h6.3v1.2H270v4.6h3.5v1.3H270v6.4h-1.6v-13.5zM280.3 592.5c-2.5 0-4.1-1.9-4.1-6.9s1.7-6.9 4.1-6.9c2.5 0 4.1 1.9 4.1 6.9s-1.7 6.9-4.1 6.9zm0-12.6c-1.4 0-2.6 1.1-2.6 5.7s1.1 5.7 2.6 5.7 2.6-1.1 2.6-5.7c-.1-4.5-1.2-5.7-2.6-5.7zM286.9 578.9h3.4c2.4 0 4 1.3 4 3.4.1 1.5-.9 2.9-2.4 3.3l2.5 6.7h-1.7l-2.4-6.4-2.1.1v6.3h-1.5v-13.4zm1.6 5.8h1.4c2.3 0 3-.8 3-2.3 0-1.5-.7-2.3-3-2.3h-1.4v4.6zM306.2 578.9l3.2 13.4h-1.6l-.9-4h-3.7l-.9 4h-1.6l3.3-13.4h2.2zm-2.7 8.2h3.3l-1.6-7.2-1.7 7.2zM312.8 578.9v12.2h4.8v1.2h-6.3v-13.4h1.5zM320.9 578.9v12.2h4.8v1.2h-6.3v-13.4h1.5zM334.1 578.9v1.2H329v4.6h3.8v1.3H329v5.2h5.4v1.2h-7V579h6.7v-.1zM343.1 578.9v13.4h-1.6v-13.4h1.6zM348.3 578.9l3.8 9.9v-9.9h1.6v13.4H352l-4.6-11.7v11.7h-1.6v-13.4h2.5zM358.7 578.9l3.8 9.9v-9.9h1.6v13.4h-1.7l-4.6-11.7v11.7h-1.6v-13.4h2.5zM366.8 578.9h3.9c1.7-.2 3.3 1.1 3.4 2.8v.5c.1 1.4-.9 2.7-2.3 3 1.6.3 2.7 1.8 2.6 3.4 0 2.5-1.5 3.7-4.7 3.7h-3l.1-13.4zm1.6 5.7h.9c2.3 0 3.3-.6 3.3-2.5 0-1.5-.7-2.1-2.6-2.1h-1.6v4.6zm0 6.4h1.6c1.9 0 2.9-.8 2.9-2.5s-.9-2.7-2.9-2.7h-1.6v5.2zM377.8 578.9l2.5 5.9 2.4-5.9h1.7l-3.4 7.7v5.7h-1.5v-5.7l-3.4-7.7h1.7zM392.5 583c-.1-1.8-.7-3.1-2.3-3.1-1.6 0-2.6 1.5-2.6 5.7 0 4.3.9 5.7 2.6 5.7 1.1.2 2.1-.6 2.3-1.7v-2.5h-2V586h3.6v6.3h-1l-.2-1c-.7.8-1.6 1.2-2.7 1.1-2.6 0-4.2-1.8-4.2-6.9s1.6-6.9 4.2-6.9 3.7 2.2 3.9 4.3l-1.6.1zM402.8 583c-.1-1.8-.7-3.1-2.3-3.1-1.6 0-2.6 1.5-2.6 5.7 0 4.3.9 5.7 2.6 5.7 1.1.2 2.1-.6 2.3-1.7v-2.5h-2V586h3.6v6.3h-1l-.2-1c-.7.8-1.6 1.2-2.7 1.1-2.6 0-4.2-1.8-4.2-6.9s1.6-6.9 4.2-6.9 3.7 2.2 3.9 4.3l-1.6.1zM413.9 578.9v1.2h-5.1v4.6h3.8v1.3h-3.8v5.2h5.4v1.2h-7V579h6.7zM416.3 578.9h3.5c2.4 0 4 1.3 4 3.4.1 1.5-.9 2.9-2.4 3.3l2.5 6.7h-1.7l-2.4-6.4-2.1.1v6.3h-1.6v-13.4zm1.6 5.8h1.4c2.3 0 3-.8 3-2.3 0-1.5-.7-2.3-3-2.3h-1.4v4.6zM433.4 578.9v1.2h-5.1v4.6h3.8v1.3h-3.8v5.2h5.4v1.2h-7V579h6.7v-.1z"/></svg>