<?xml version="1.0" encoding="utf-8"?>
<!-- Generator: Adobe Illustrator 15.0.0, SVG Export Plug-In . SVG Version: 6.00 Build 0)  -->
<!DOCTYPE svg PUBLIC "-//W3C//DTD SVG 1.1//EN" "http://www.w3.org/Graphics/SVG/1.1/DTD/svg11.dtd">
<svg version="1.1" xmlns="http://www.w3.org/2000/svg" xmlns:xlink="http://www.w3.org/1999/xlink" x="0px" y="0px" width="380px"
	 height="83.4px" viewBox="53.6 526.3 380 83.4" enable-background="new 53.6 526.3 380 83.4" xml:space="preserve">
<g id="Layer_2">
</g>
<g id="Layer_1">
	<title>logo</title>
	<path fill="#E73137" d="M124.5,526.3l-0.2,50.3c-0.8,12.8-8.4,24.1-20,29.6c-11.7,6-28.4,3.9-38.1-4.6C58.6,595.3,54,586,53.6,576
		l0.1-49.7H124.5z"/>
	<path fill="#FFFFFF" stroke="#1D1D1B" stroke-width="0.5" stroke-miterlimit="10" d="M105.3,537.9l0.4,2.2c0.6,0.1,1.3-0.2,2-0.1
		c2,0,3.7,1.2,4.4,3c0.6,1.4,0.5,3-0.2,4.3c-0.7,1.1-1.7,1.9-2.9,2.4c0.9,1.5,0.9,3.4,0,5c-0.9,1.7-2.7,2.7-4.6,2.5
		c-1.4-0.2-2.7-0.9-3.6-2c-1.3,1.6-3.4,2.4-5.4,1.9c-0.4,0-1-0.5-1.1,0.2c-1,1.2-2,2.5-2.8,3.9c0.7,0,1.4-0.3,2-0.8
		c0.4-0.7,0.5-1.6,1.6-2c1.6-0.4,3.8-0.7,5.4,0.1c0.5,0.4,0.6,1.1,0.3,1.6c-1.1,1.7-2.9,2.7-4.9,2.8c-1.3,0-2.5-1.1-3.6-0.1h-0.2
		l0.1,0.2l4.9,1.5c0.6-0.3,0.8-1,1.5-1.4c1.4-1,3.3-1.3,5-0.8c0-1.6,0.9-3.2,2.2-4.1c1.3-0.9,3-1.1,4.5-0.4c1.7,0.7,2.8,2.4,2.9,4.3
		c0.6,0.1,1.1-0.3,1.8-0.2c1.8,0,3.4,0.9,4.4,2.4c0.7,1.5,0.7,3.3,0,4.9c-0.7,1.2-1.9,2.1-3.3,2.5c1.1,1.6,1.3,3.7,0.5,5.5
		c-0.9,1.7-2.7,2.7-4.6,2.6c-1.6,0-3.1-0.8-4.1-2.1c-1.3,1.3-3.2,1.8-5,1.5c-1.5-0.4-2.7-1.4-3.3-2.9c-0.5-1.5-0.3-3.2,0.5-4.6v-0.1
		c-1.6-0.5-2.8-1.9-3.2-3.5l-0.2-1.5c-1.6-0.6-3.2-1.2-4.9-1.6l-0.1,0.1c0.4,0.5,0.7,1.5,1.5,1.5c0.9-0.1,1.8,0.3,2.3,1
		c1,1.5,1.4,3.3,1.2,5c-0.2,0.6-0.9,0.9-1.5,0.7c-1.9-0.5-4.2-2.4-4.4-4.6c0.8-1-0.3-1.9-0.8-2.6l-0.2,0.4v4.9
		c1.3,0.5,2.4,1.4,3.1,2.6c0.3,0.7,0.5,1.4,0.7,2.1c1.6-0.6,3.3-0.4,4.7,0.5c1.4,1,2.2,2.7,2.1,4.4c-0.2,2.1-1.6,3.9-3.6,4.5
		c-0.2,0.6,0.6,1,0.6,1.6c0.5,1.5,0.3,3.1-0.5,4.4c-0.9,1.3-2.3,2.2-3.9,2.3c-1.7,0-3.3-0.7-4.3-2.1c-1.3,1.5-3.3,2.1-5.1,1.6
		c-1.6-0.4-2.8-1.7-3.3-3.3c-0.5-1.4-0.3-3,0.6-4.3c-0.5-0.3-0.9-0.6-1.5-0.9c-1.6-1.2-2.4-3.1-2-5c0.4-1.6,1.5-2.9,3-3.4
		c1.2-0.4,2.4-0.5,3.6-0.1c0.3-0.5,0.1-1.3,0.4-1.9c0.6-1.6,1.9-2.8,3.5-3.1c0.2-1.8,0.2-3.6,0.1-5.4v-0.1c-0.6,0.5-1.1,1.1-1.5,1.8
		c0.5,0.9,0.4,2-0.2,2.9c-1.2,1.3-2.8,2.2-4.6,2.6c-0.5-0.1-0.9-0.5-0.9-1c-0.1-1.9,0.6-3.7,1.9-5c0.6-0.5,1.4-0.7,2.2-0.6
		c0.5-0.5,0.9-1,1.1-1.6c-1.7,0.4-3.3,0.9-4.9,1.5c-0.4,0.5,0,1-0.2,1.5c-0.4,1.7-1.6,3.1-3.3,3.8c1,1.4,1.3,3.3,0.7,5
		c-0.6,1.7-2.2,2.9-3.9,3c-1.9,0.3-3.9-0.6-4.9-2.3l-0.3,0.1c-1.6,2.2-4.8,2.7-7,1.1c-0.8-0.6-1.3-1.3-1.7-2.2
		c-0.6-1.6-0.3-3.4,0.6-4.8c-0.4-0.6-1.1-0.7-1.6-1.3c-1.9-1.9-1.8-4.9,0-6.8c0.8-0.8,1.8-1.2,2.9-1.4c0.8,0.1,1.5,0.1,2.3,0
		c0-2.6,2.1-4.8,4.8-4.8c0.8,0,1.7,0.2,2.4,0.6c1.6,0.9,2.6,2.7,2.6,4.6c2-0.6,4.2,0,5.5,1.6c0,0.5,0.7,0.4,1.1,0.3
		c1.4-0.6,3-0.8,4.4-1.6c-0.6-0.4-1.3-0.6-2-0.6c-0.7,0.6-1.7,0.9-2.6,0.6c-1.7-0.5-3.2-1.6-4.1-3.1c-0.2-0.6,0.1-1.3,0.6-1.6
		c1.9-0.6,4.6-0.6,6,0.9l0.9,1.5c0.6,0.2,1.3,0.4,1.9,0.4c-1-1.5-2-3-3.2-4.4c-1.7,0.7-3.6,0.4-5-0.6l-0.9-0.9
		c-1.4,1.5-3.1,2.7-5.3,2.3c-1.4-0.3-2.6-1.3-3.4-2.5c-0.9-1.6-0.9-3.6,0.1-5.2c0.2-0.2,0.6-0.5,0.1-0.7c-1.7-0.6-2.9-1.9-3.4-3.6
		c-0.3-1.6,0.1-3.2,1.1-4.4c1.3-1.4,3.4-2,5.3-1.5c0.2-1.8,1.4-3.4,3.1-4.1c1.6-0.6,3.4-0.4,4.8,0.6c1.2,1,1.9,2.4,2.1,3.9
		c1.6-0.4,3.4-0.1,4.7,0.8c1.5,1.1,2.2,3.1,1.7,4.9c-0.5,1.7-1.9,3.1-3.6,3.7c1.1,1.4,1.4,3.3,0.6,5l-0.6,1.4c0.9,1.4,2,2.8,3.1,4.1
		c0.2-0.7,0.2-1.4,0-2.2c-0.5-0.2-0.9-0.6-1.1-1.1c-0.7-2.1,0.4-4.1,1.4-5.8c0.2-0.3,0.6-0.5,0.9-0.5c1.6,0.5,2.1,2.5,2.3,4.1
		c0.2,1.3-0.3,2.7-1.5,3.4c-0.1,0.6-0.1,1.3,0,1.9c1.1-1.3,2.1-2.6,3.1-4c-0.7-1.1-1.1-2.4-1.1-3.8c-0.1-1.1,0.6-2,1-3
		c-1.8-0.6-3.1-2-3.4-3.9c-0.2-1.6,0.4-3.2,1.6-4.3c1.3-1,3-1.3,4.6-0.9c0.1-1.3,0.5-2.6,1.3-3.6c1.3-1.5,3.3-2,5.1-1.5
		C103.5,535.3,104.7,536.4,105.3,537.9L105.3,537.9L105.3,537.9z"/>
	<path fill="#FFFFFF" stroke="#1D1D1B" stroke-width="0.5" stroke-miterlimit="10" d="M104.1,537.4c0.9,1.3,0.9,2.9,0,4.2
		c-0.4,0.7-1.4,1.3-1.1,2.1c0.1,0.1,0.4,0.1,0.5,0c0,0,0,0,0,0c1.1-1,1.6-3.2,3.6-3c1.5-0.1,2.9,0.6,3.7,1.8c0.7,1,0.9,2.1,0.5,3.3
		c-0.3,1.2-1.2,2.1-2.3,2.5c-1.5,0.8-3-0.5-4.6-0.6c-0.2,0.1-0.4,0.3-0.3,0.5c1.4,0.9,3.8,0.5,4.3,2.6c0.5,1.4,0.2,3-0.8,4.1
		c-1.5,1.6-3.9,1.7-5.6,0.3c-0.4-0.4-0.8-0.9-1-1.4v-3.1c-0.1-0.1-0.4-0.2-0.6-0.2c-0.5,1.4,0.2,3.4-0.9,4.6c-1,1.1-2.6,1.5-4,1.1
		c-1.3-0.3-2.3-1.2-2.8-2.4c-0.5-1.3-0.3-2.8,0.5-3.9c1-1,2.4-1,3.6-1.6c0.2-0.1,0.2-0.4,0.1-0.5l-0.3-0.2c-1.5,0.3-3,1.2-4.6,0.4
		c-1.2-0.6-2-1.8-2.2-3.1c-0.2-2.2,1.3-4.1,3.5-4.3c0.9-0.1,1.7,0.1,2.5,0.5l2.3,2.7c0.2,0,0.4-0.1,0.5-0.3c-0.5-1.1-1.4-2-2-3.1
		c-0.4-1.6,0.3-3.3,1.7-4.2C100.4,535.1,102.8,535.6,104.1,537.4L104.1,537.4z"/>
	<path fill="#FFFFFF" stroke="#1D1D1B" stroke-width="0.5" stroke-miterlimit="10" d="M80.3,537.8c0.5,0.9,0.8,1.9,0.6,2.9l-1.9,2.7
		c0.1,0.2,0.2,0.3,0.4,0.3c1.5-0.9,2-3.7,4.4-3.2c1.5,0.1,2.8,0.9,3.4,2.3c1,1.8,0.3,4.1-1.6,5.1c-0.4,0.2-0.7,0.3-1.1,0.4
		c-1.4,0.1-2.5-0.7-3.9-0.8c-0.2,0.1-0.2,0.3-0.2,0.5c0,0,0,0,0,0c1.3,0.8,3,0.6,3.9,2.1c1.2,1.8,0.8,4.3-1,5.5
		c-0.7,0.5-1.5,0.7-2.3,0.7c-1.5,0-2.8-0.9-3.5-2.1l-0.2-3.7c-0.1-0.2-0.4-0.2-0.6-0.1c0,0,0,0,0,0c-0.5,1.6,0.6,3.9-1,5
		c-1.2,1.1-3,1.3-4.4,0.6c-1.5-0.7-2.4-2.2-2.4-3.8c-0.1-0.9,0.3-1.8,1-2.4c0.5-1.4,2.3-1.1,3.4-1.7c0.2-0.1,0.3-0.3,0.1-0.5
		c0,0,0,0,0,0l-0.3-0.2c-1.6,0.1-3.3,1.7-4.8,0.3c-1.3-0.8-2-2.2-2-3.8c0.2-1.6,1.4-3,2.9-3.4c1.1-0.3,2.2-0.2,3.1,0.4l2,2.6
		c0.2,0,0.6,0.1,0.6-0.2c-0.5-1.6-2.6-2.6-1.9-4.5c0.4-1.2,1.2-2.2,2.4-2.7C77.3,535.5,79.3,536.1,80.3,537.8L80.3,537.8z"/>
	<path fill="#FFFFFF" stroke="#1D1D1B" stroke-width="0.5" stroke-miterlimit="10" d="M101.6,541.9c0,0.4-0.2,0.8-0.5,1.1l-0.1,2.4
		c-0.1,0.2-0.3,0.3-0.5,0.2c-0.6-1.1,0.2-2.6-0.6-3.4c-0.1-0.4,0.2-0.8,0.6-0.9C100.9,541.2,101.4,541.4,101.6,541.9
		C101.5,541.9,101.5,541.9,101.6,541.9L101.6,541.9L101.6,541.9z"/>
	<path fill="#FFFFFF" stroke="#1D1D1B" stroke-width="0.5" stroke-miterlimit="10" d="M77.9,542c-0.1,0.4-0.3,0.9-0.5,1.3
		c-0.2,0.8,0.5,1.8-0.5,2.1c-0.5-0.8,0.2-2.3-0.6-2.9c-0.1-0.4,0.1-0.9,0.4-1.1C77.2,541.2,77.6,541.5,77.9,542L77.9,542L77.9,542z"
		/>
	<path fill="#FFFFFF" stroke="#1D1D1B" stroke-width="0.5" stroke-miterlimit="10" d="M101,542c0,0.2-0.1,0.3-0.3,0.3c0,0,0,0-0.1,0
		c-0.1,0-0.2-0.1-0.3-0.2c0,0,0,0,0,0c0-0.2,0.1-0.3,0.3-0.4C100.9,541.7,101,541.8,101,542L101,542z"/>
	<path fill="#FFFFFF" stroke="#1D1D1B" stroke-width="0.5" stroke-miterlimit="10" d="M77.3,542.2c-0.1,0.2-0.2,0.3-0.4,0.2
		c0,0-0.1,0-0.1,0c-0.1-0.1-0.2-0.2-0.1-0.4c0-0.1,0.1-0.1,0.1-0.1c0.1-0.1,0.3,0,0.4,0.1C77.3,542.1,77.3,542.2,77.3,542.2
		L77.3,542.2L77.3,542.2z"/>
	<path fill="#FFFFFF" stroke="#1D1D1B" stroke-width="0.5" stroke-miterlimit="10" d="M82.3,544.9c0.1,0.3-0.1,0.7-0.4,0.8
		c-0.4,0.2-0.8,0.2-1.1,0c-0.8,0.4-1.8,0.6-2.7,0.6c-0.2-0.1-0.2-0.2-0.2-0.4c0.9-0.8,2.5-0.3,3.1-1.5c0.3-0.3,0.9-0.3,1.2,0.1
		C82.2,544.7,82.2,544.8,82.3,544.9L82.3,544.9L82.3,544.9z"/>
	<path fill="#FFFFFF" stroke="#1D1D1B" stroke-width="0.5" stroke-miterlimit="10" d="M73.5,545.1l2.4,1c0.1,0.1,0.1,0.3,0,0.5
		c0,0,0,0-0.1,0c-1.2,0-2.3-1-3.7-0.6c-0.3-0.3-0.5-0.7-0.3-1.1c0.2-0.2,0.4-0.3,0.6-0.4C72.9,544.3,73.4,544.6,73.5,545.1
		L73.5,545.1L73.5,545.1z"/>
	<path fill="#FFFFFF" stroke="#1D1D1B" stroke-width="0.5" stroke-miterlimit="10" d="M97.5,545.4c0.8,0.1,1.5,0.4,2.1,0.9
		c0.1,0.3-0.3,0.5-0.6,0.3c-0.8-0.1-1.7-1-2.6-0.4c-0.5,0.1-0.9-0.2-1-0.6c-0.1-0.4,0.1-0.8,0.5-0.9
		C96.7,544.3,96.9,545.1,97.5,545.4L97.5,545.4L97.5,545.4z"/>
	<path fill="#FFFFFF" stroke="#1D1D1B" stroke-width="0.5" stroke-miterlimit="10" d="M106,545.4c0,0.4-0.3,0.7-0.7,0.8
		c-1.1-0.5-2.3,0.5-3.4,0.4c-0.1-0.1-0.2-0.3-0.1-0.4c0,0,0.1-0.1,0.1-0.1c0.9-0.6,2.3-0.5,3.1-1.4
		C105.5,544.5,105.9,544.9,106,545.4C106,545.4,106,545.4,106,545.4L106,545.4L106,545.4z"/>
	<path fill="#FFFFFF" stroke="#1D1D1B" stroke-width="0.5" stroke-miterlimit="10" d="M81.8,545.1c0,0.2-0.1,0.3-0.3,0.3
		c0,0,0,0,0,0c-0.2,0-0.3-0.1-0.4-0.3c0-0.2,0.2-0.3,0.3-0.3S81.8,544.9,81.8,545.1L81.8,545.1L81.8,545.1z"/>
	<path fill="#FFFFFF" stroke="#1D1D1B" stroke-width="0.5" stroke-miterlimit="10" d="M72.9,545.1c0,0.2-0.1,0.3-0.2,0.3
		c-0.1,0-0.1,0-0.2,0c-0.2,0-0.2-0.4,0-0.5c0.1-0.1,0.3,0,0.4,0.1C72.9,545,72.9,545.1,72.9,545.1L72.9,545.1L72.9,545.1z"/>
	<path fill="#FFFFFF" stroke="#1D1D1B" stroke-width="0.5" stroke-miterlimit="10" d="M96.5,545.6c0,0.2-0.2,0.1-0.4,0.1
		c-0.1-0.1-0.2-0.3-0.1-0.5C96.2,544.9,96.8,545.2,96.5,545.6L96.5,545.6z"/>
	<path fill="#FFFFFF" stroke="#1D1D1B" stroke-width="0.5" stroke-miterlimit="10" d="M105.5,545.4c-0.1,0.1,0,0.4-0.3,0.3
		c-0.2,0.1-0.2-0.1-0.3-0.2c0-0.2,0.1-0.3,0.3-0.3C105.3,545.1,105.4,545.2,105.5,545.4L105.5,545.4z"/>
	<path fill="#FFFFFF" stroke="#1D1D1B" stroke-width="0.5" stroke-miterlimit="10" d="M76.5,547.7c-0.4,1.1-1.6,1.8-1.5,2.9
		c-0.1,0.3-0.4,0.5-0.8,0.5c-0.4,0.1-0.7-0.2-0.8-0.5c-0.1-0.5,0.2-1,0.7-1.1c0.9-0.3,1.1-1.6,2-2.1
		C76.3,547.4,76.5,547.5,76.5,547.7L76.5,547.7L76.5,547.7z"/>
	<path fill="#FFFFFF" stroke="#1D1D1B" stroke-width="0.5" stroke-miterlimit="10" d="M80.4,549.6c0.2,0.3,0.3,0.7,0.2,1.1
		c-0.2,0.4-0.6,0.5-1,0.3c-0.4-0.2-0.7-0.7-0.6-1.1l-1.4-2.1c0-0.3,0.5-0.4,0.6-0.1C79,548.4,79.1,549.7,80.4,549.6L80.4,549.6
		L80.4,549.6z"/>
	<path fill="#FFFFFF" stroke="#1D1D1B" stroke-width="0.5" stroke-miterlimit="10" d="M100.4,548c-0.5,0.9-1.7,1.7-1.6,2.9
		c-0.2,0.4-0.6,0.6-1,0.5c0,0-0.1,0-0.1-0.1c-0.4-0.3-0.5-0.8-0.3-1.2c1.1-0.4,1.6-1.8,2.6-2.5c0.2-0.1,0.4,0,0.4,0.2
		C100.3,547.8,100.3,547.9,100.4,548L100.4,548L100.4,548z"/>
	<path fill="#FFFFFF" stroke="#1D1D1B" stroke-width="0.5" stroke-miterlimit="10" d="M103.3,549.5c0.4,0.1,0.8,0.4,0.9,0.8
		c0,0.3-0.2,0.6-0.4,0.9c-0.5,0.2-1,0-1.2-0.5c0,0,0-0.1,0-0.1c0.2-1.1-1.1-1.6-1.1-2.7c0.1-0.1,0.4-0.2,0.5-0.1L103.3,549.5
		L103.3,549.5L103.3,549.5z"/>
	<path fill="#FFFFFF" stroke="#1D1D1B" stroke-width="0.5" stroke-miterlimit="10" d="M80.1,550.3c0,0.1-0.1,0.2-0.2,0.2
		c0,0-0.1,0-0.1,0c-0.2,0-0.3-0.2-0.3-0.4c0-0.1,0-0.1,0.1-0.2C79.9,550,80.3,550,80.1,550.3L80.1,550.3z"/>
	<path fill="#FFFFFF" stroke="#1D1D1B" stroke-width="0.5" stroke-miterlimit="10" d="M74.6,550.3c0,0.2-0.1,0.3-0.3,0.3
		c0,0-0.1,0-0.1,0c-0.1,0-0.4,0-0.3-0.3c0-0.1,0.1-0.3,0.3-0.3C74.4,550,74.5,550.2,74.6,550.3L74.6,550.3z"/>
	<path fill="#FFFFFF" stroke="#1D1D1B" stroke-width="0.5" stroke-miterlimit="10" d="M103.7,550.3c0,0.2-0.1,0.3-0.3,0.3
		c0,0,0,0,0,0c-0.1,0-0.3-0.1-0.3-0.2c0,0,0-0.1,0-0.1c0-0.1,0.1-0.3,0.3-0.3C103.5,550.1,103.6,550.2,103.7,550.3L103.7,550.3z"/>
	<path fill="#FFFFFF" stroke="#1D1D1B" stroke-width="0.5" stroke-miterlimit="10" d="M98.4,550.5c-0.1,0.2-0.2,0.3-0.4,0.3
		c-0.2,0-0.3-0.2-0.3-0.4c0,0,0-0.1,0-0.1C97.9,550.2,98.4,550.2,98.4,550.5L98.4,550.5z"/>
	<path fill="#FFFFFF" stroke="#1D1D1B" stroke-width="0.5" stroke-miterlimit="10" d="M90.5,553.7c0.1,0.6,0.1,1.3,0,2h-3.1
		c-0.3-1.7,0.3-3.5,1.6-4.7C89.9,551.3,90.1,552.7,90.5,553.7L90.5,553.7L90.5,553.7z"/>
	<path fill="#FFFFFF" stroke="#1D1D1B" stroke-width="0.5" stroke-miterlimit="10" d="M72.8,559.7c0.8,1,1,2.4,0.5,3.5l-1.7,2.3
		c-0.1,0.4,0.1,0.5,0.3,0.6c1.4-0.8,1.7-2.8,3.4-3c1.2-0.3,2.4,0,3.4,0.7c1.7,1.4,2,3.9,0.7,5.6c-0.7,0.9-1.7,1.4-2.8,1.5l-3.3-1
		c-0.2,0-0.2,0.2-0.3,0.4c0,0.6,0.7,0.5,1.1,0.7c1.1,0.5,2.6,0.4,3.2,1.8c0.6,1.3,0.5,2.8-0.2,4c-1.1,1.9-3.6,2.5-5.4,1.3
		c-0.7-0.4-1.2-1-1.5-1.7c-0.6-1-0.2-2.4-0.3-3.6c-0.2-0.2-0.5-0.2-0.7-0.1c-0.4,1.7,0.3,4.6-2.1,5.3c-1.1,0.5-2.4,0.5-3.4,0
		c-1.4-0.6-2.4-2-2.4-3.6c0.1-1.2,0.6-2.2,1.4-3c1.1-0.4,2.2-0.8,3.3-1.2c0.1-0.2,0-0.4-0.2-0.5c0,0,0,0,0,0l-3.6,0.9
		c-1.5-0.5-2.6-1.7-2.9-3.2c-0.1-1.3,0.3-2.5,1.2-3.4c1.2-1.1,2.9-1.4,4.4-0.7c0.8,0.8,1.5,1.7,2.1,2.7c0.2,0.1,0.5,0,0.6-0.2
		c-0.6-1.8-2.7-2.9-1.9-4.8c0.5-1.5,1.8-2.7,3.4-2.8C70.5,558,71.9,558.6,72.8,559.7L72.8,559.7L72.8,559.7z"/>
	<path fill="#FFFFFF" stroke="#1D1D1B" stroke-width="0.5" stroke-miterlimit="10" d="M111.6,560.1c0.6,0.9,0.7,2.1,0.3,3.2
		l-1.8,2.3c-0.1,0.2,0,0.5,0.2,0.6c0,0,0,0,0.1,0c1.5-1,1.7-3.4,4-3.3c1.8-0.2,3.4,0.7,4.2,2.3c0.5,1.5,0.2,3.1-0.8,4.3
		c-0.8,0.9-1.8,1.3-3,1.4c-1-0.2-2.1-0.5-3.1-0.9c-0.2,0.1-0.4,0.3-0.3,0.5c0,0,0,0.1,0.1,0.1c1.2,1.1,3.4,0.6,4,2.5
		c0.7,1.5,0.3,3.3-0.8,4.4c-1,1-2.5,1.4-3.9,1.1c-1.2-0.4-2.1-1.2-2.6-2.3V573c-0.1-0.2-0.3-0.3-0.5-0.2c0,0,0,0-0.1,0
		c-0.5,1.3,0.4,3.4-1,4.6c-1.5,1.5-4,1.6-5.5,0.1c-1.5-1.5-1.6-4-0.1-5.5c0.9-1.1,2.5-0.7,3.4-1.7c0-0.6-0.7-0.3-1.1-0.2
		c-1.3,0.2-2.8,1.4-4.1,0.3c-1.3-1.1-2.3-2.4-1.8-4.1c0.3-1.5,1.4-2.7,2.8-3.2c1.2-0.5,2.6-0.1,3.5,0.8l1.6,2.3
		c0.3,0.1,0.5-0.1,0.6-0.4c-0.5-1.4-2.3-2.3-1.9-4.1c0.2-1.3,1.1-2.5,2.3-3.1C108.4,557.7,110.6,558.4,111.6,560.1L111.6,560.1
		L111.6,560.1z"/>
	<path fill="#FFFFFF" stroke="#1D1D1B" stroke-width="0.5" stroke-miterlimit="10" d="M82.5,559.3l-0.8,2.9c-1.4,0.3-2.7-1.1-3.7-2
		c-0.3-0.3-0.8-0.9-0.3-1.3C79.2,558.4,81,558.5,82.5,559.3L82.5,559.3L82.5,559.3z"/>
	<path fill="#FFFFFF" stroke="#1D1D1B" stroke-width="0.5" stroke-miterlimit="10" d="M99.9,559.2c0.3,0.3,0,0.5,0,0.8
		c-1,1.2-2.3,2-3.8,2.2c-0.2-1.1-0.6-2-1-3C96.7,558.5,98.4,558.5,99.9,559.2L99.9,559.2L99.9,559.2z"/>
	<path fill="#FFFFFF" stroke="#1D1D1B" stroke-width="0.5" stroke-miterlimit="10" d="M70.2,564.2c-0.1,0.4-0.2,0.8-0.3,1.1
		c-0.1,0.9,0.2,2.1-0.4,2.6c-0.2,0-0.4-0.1-0.4-0.3c-0.2-1,0.4-2.4-0.4-3.2c-0.1-0.4,0.2-0.9,0.6-1c0,0,0,0,0,0
		C69.7,563.5,70.1,563.7,70.2,564.2L70.2,564.2L70.2,564.2z"/>
	<path fill="#FFFFFF" stroke="#1D1D1B" stroke-width="0.5" stroke-miterlimit="10" d="M108.8,564.3c0,0.4-0.1,0.8-0.4,1.1l-0.2,2.5
		h-0.5l-0.1-2.6c-0.3-0.1-0.5-0.4-0.5-0.7c0-0.4,0.3-0.8,0.7-0.9C108.3,563.6,108.7,563.9,108.8,564.3L108.8,564.3L108.8,564.3z"/>
	<path fill="#FFFFFF" stroke="#1D1D1B" stroke-width="0.5" stroke-miterlimit="10" d="M69.7,564.3c0,0.2-0.1,0.4-0.3,0.3
		c-0.1,0.1-0.2,0-0.3-0.1c0,0,0-0.1,0-0.1c0-0.2,0.1-0.3,0.3-0.4c0,0,0,0,0,0C69.5,564,69.6,564.1,69.7,564.3L69.7,564.3L69.7,564.3
		z"/>
	<path fill="#FFFFFF" stroke="#1D1D1B" stroke-width="0.5" stroke-miterlimit="10" d="M108.2,564.7c-0.1,0.1-0.3,0.1-0.4,0
		c0,0,0,0,0,0c-0.1-0.1-0.1-0.3-0.1-0.5c0.2-0.1,0.4-0.1,0.5,0.1C108.2,564.5,108.3,564.6,108.2,564.7L108.2,564.7z"/>
	<path fill="#FFFFFF" stroke="#1D1D1B" stroke-width="0.5" stroke-miterlimit="10" d="M74.7,567.5c0,0.4-0.2,0.7-0.6,0.9
		c-1.1-0.3-2.3,0.3-3.4,0.5c-0.2-0.1-0.3-0.3-0.2-0.5c0.8-0.5,2.3-0.3,2.7-1.3c0.3-0.3,0.9-0.3,1.2,0
		C74.6,567.2,74.7,567.3,74.7,567.5L74.7,567.5z"/>
	<path fill="#FFFFFF" stroke="#1D1D1B" stroke-width="0.5" stroke-miterlimit="10" d="M66.3,567.5c0.7,0.1,1.4,0.4,2,0.9
		c0,0.6-0.7,0.3-1,0.2c-0.7-0.2-1.3-0.7-2.1-0.3c-0.4,0-0.7-0.2-0.9-0.5c-0.2-0.5,0.1-1,0.5-1.1C65.6,566.4,65.8,567.2,66.3,567.5
		L66.3,567.5L66.3,567.5z"/>
	<path fill="#FFFFFF" stroke="#1D1D1B" stroke-width="0.5" stroke-miterlimit="10" d="M113.4,567.5c0.1,0.4-0.2,0.8-0.6,1
		c-1.2-0.5-2.3,0.4-3.4,0.5c-0.2,0-0.4-0.2-0.4-0.4c0-0.1,0-0.2,0.1-0.2c1-0.6,2.5-0.4,3.2-1.5C112.7,566.8,113.2,567,113.4,567.5
		L113.4,567.5L113.4,567.5z"/>
	<path fill="#FFFFFF" stroke="#1D1D1B" stroke-width="0.5" stroke-miterlimit="10" d="M104.7,567.6c0.8,0.3,2.3,0.2,2.4,1.3
		l-0.3,0.1c-1.1-0.1-2-1.1-3.1-0.5c-0.5,0-0.9-0.3-1-0.7c-0.2-0.4,0.3-0.7,0.6-0.9C104,566.7,104.2,567.4,104.7,567.6L104.7,567.6
		L104.7,567.6z"/>
	<path fill="#FFFFFF" stroke="#1D1D1B" stroke-width="0.5" stroke-miterlimit="10" d="M74.1,567.5c0.1,0.2-0.2,0.3-0.3,0.4
		c-0.1,0-0.4-0.1-0.3-0.4C73.5,567.1,74,567.1,74.1,567.5L74.1,567.5L74.1,567.5z"/>
	<path fill="#FFFFFF" stroke="#1D1D1B" stroke-width="0.5" stroke-miterlimit="10" d="M65.5,567.5c-0.1,0.3-0.3,0.5-0.6,0.3
		c-0.1-0.2,0-0.4,0.1-0.5C65.2,567.3,65.4,567.4,65.5,567.5L65.5,567.5z"/>
	<path fill="#FFFFFF" stroke="#1D1D1B" stroke-width="0.5" stroke-miterlimit="10" d="M112.8,567.8c-0.2,0.1-0.4,0.1-0.6,0
		c0-0.1,0-0.5,0.2-0.5S113,567.5,112.8,567.8L112.8,567.8L112.8,567.8z"/>
	<path fill="#FFFFFF" stroke="#1D1D1B" stroke-width="0.5" stroke-miterlimit="10" d="M103.8,567.7c0,0.2-0.1,0.3-0.3,0.3
		c-0.2,0-0.3-0.1-0.3-0.3C103.2,567.4,103.8,567.3,103.8,567.7L103.8,567.7z"/>
	<path fill="#FFFFFF" stroke="#1D1D1B" stroke-width="0.5" stroke-miterlimit="10" d="M85.7,569c0.3,0.4-0.2,0.7-0.4,1.1
		c-0.9,1-2.1,1.7-3.3,2.3c-0.5,0.2-0.7-0.4-0.8-0.8c0.1-1.7,0.9-3.2,2.3-4.2C84.2,568.1,85,568.6,85.7,569L85.7,569L85.7,569z"/>
	<path fill="#FFFFFF" stroke="#1D1D1B" stroke-width="0.5" stroke-miterlimit="10" d="M95.6,572.4c-1.1,0.3-2.3-0.8-3.1-1.5
		c-0.4-0.4-0.7-0.9-0.9-1.5c0.8-0.6,1.7-1.1,2.4-1.7C95.5,568.8,96.1,570.6,95.6,572.4L95.6,572.4L95.6,572.4z"/>
	<path fill="#FFFFFF" stroke="#1D1D1B" stroke-width="0.5" stroke-miterlimit="10" d="M69,570.4c-0.6,0.8-1.6,1.5-1.5,2.7
		c-0.3,0.3-0.7,0.5-1.1,0.3c-0.3-0.2-0.5-0.4-0.5-0.8c0-0.3,0.2-0.7,0.5-0.8c1-0.2,1.3-1.5,2.2-2.1C69,569.6,69.2,570.1,69,570.4
		L69,570.4L69,570.4z"/>
	<path fill="#FFFFFF" stroke="#1D1D1B" stroke-width="0.5" stroke-miterlimit="10" d="M70.5,569.8c0.7,0.8,1.1,2.1,2.3,2.4
		c0.3,0.3,0.4,0.8,0.1,1.1c-0.3,0.3-0.8,0.4-1.1,0.2c-0.3-0.3-0.4-0.7-0.4-1.1l-1.4-2.2c0-0.2,0.2-0.4,0.4-0.4
		C70.4,569.8,70.4,569.8,70.5,569.8L70.5,569.8z"/>
	<path fill="#FFFFFF" stroke="#1D1D1B" stroke-width="0.5" stroke-miterlimit="10" d="M109,569.8c0.7,0.8,1.1,2.1,2.2,2.4
		c0.3,0.3,0.4,0.7,0.2,1c-0.3,0.4-0.7,0.5-1.1,0.3c-0.4-0.3-0.5-0.8-0.4-1.2l-1.4-2C108.5,570,108.7,569.8,109,569.8
		C109,569.8,109,569.8,109,569.8L109,569.8z"/>
	<path fill="#FFFFFF" stroke="#1D1D1B" stroke-width="0.5" stroke-miterlimit="10" d="M107.4,570.3c-0.4,1-1.5,1.7-1.3,2.7
		c-0.1,0.2-0.3,0.3-0.5,0.3c-0.1-0.3,0.3-0.8-0.2-1c-0.2-0.1-0.3,0-0.4,0.2c0,0,0,0,0,0c-0.2,0.6,0.6,0.3,0.4,0.9
		c-0.4,0.1-0.8-0.2-0.9-0.5c-0.1-0.4,0.1-0.9,0.5-1c1-0.1,1.1-1.4,1.8-1.9C107,569.9,107.3,570,107.4,570.3L107.4,570.3z"/>
	<path fill="#FFFFFF" stroke="#1D1D1B" stroke-width="0.5" stroke-miterlimit="10" d="M92.1,574c1.6,2.1-0.7,3.7-1.5,5.5
		c0.1,0.2,0.2,0.4,0.4,0.5l0.3-0.1c1.1-1.1,1.4-2.9,3.2-3.2c1.4-0.3,2.8,0.1,3.8,1.1c1.6,1.6,1.6,4.1,0,5.7c-0.6,0.6-1.4,1-2.3,1.2
		c-1.3,0.2-2.3-0.6-3.5-0.7c-0.2,0.2-0.3,0.5-0.2,0.7c1.4,0.8,3.5,0.5,4.2,2.4c0.7,1.5,0.4,3.3-0.7,4.6c-0.8,0.8-1.8,1.2-2.9,1.3
		c-1.5,0-3-0.8-3.7-2.2l-0.1-3.8c-0.2-0.1-0.4-0.1-0.6,0c-0.6,1.6,0.7,4.2-1.3,5c-1.8,1.3-4.3,0.8-5.6-1c-0.5-0.6-0.7-1.4-0.7-2.2
		c0-1.3,0.6-2.5,1.6-3.3l2.8-0.9c0.1-0.2,0-0.5-0.3-0.6c0,0,0,0-0.1,0c-1.7,0.3-3.9,2-5.4,0.1c-0.8-0.8-1.4-1.9-1.5-3
		c0-1.7,1.1-3.3,2.7-3.9c1.2-0.5,2.6-0.3,3.6,0.5c0.6,0.9,1.3,1.7,2,2.5c0.3,0,0.3-0.2,0.5-0.4c-0.6-1.5-2.3-2.5-1.9-4.4
		c0.4-2.2,2.4-3.6,4.6-3.2C90.4,572.3,91.5,573,92.1,574L92.1,574L92.1,574z"/>
	<path fill="#FFFFFF" stroke="#1D1D1B" stroke-width="0.5" stroke-miterlimit="10" d="M67,572.6c0,0.2-0.1,0.4-0.3,0.4
		c-0.2,0-0.3-0.1-0.4-0.3C66.2,572.4,67,572.2,67,572.6L67,572.6z"/>
	<path fill="#FFFFFF" stroke="#1D1D1B" stroke-width="0.5" stroke-miterlimit="10" d="M72.5,572.8c0,0.2-0.1,0.3-0.2,0.3
		c0,0,0,0-0.1,0c-0.1-0.1-0.2-0.2-0.3-0.3C71.9,572.4,72.6,572.4,72.5,572.8L72.5,572.8L72.5,572.8z"/>
	<path fill="#FFFFFF" stroke="#1D1D1B" stroke-width="0.5" stroke-miterlimit="10" d="M111,573c-0.1,0.1-0.3,0.2-0.5,0.1
		c-0.2-0.1-0.2-0.3-0.1-0.5c0-0.1,0.1-0.1,0.2-0.1C110.9,572.5,111.2,572.7,111,573L111,573L111,573z"/>
	<path fill="#FFFFFF" stroke="#1D1D1B" stroke-width="0.5" stroke-miterlimit="10" d="M89.2,578.1c0,0.4-0.1,0.7-0.3,1.1l-0.1,2.5
		c-0.1,0.1-0.4,0.1-0.5,0c-0.3-0.9,0.3-2.3-0.5-2.9c-0.2-0.3-0.2-0.8,0-1.1c0.4-0.3,0.9-0.2,1.2,0.1C89.1,577.9,89.1,578,89.2,578.1
		L89.2,578.1L89.2,578.1z"/>
	<path fill="#FFFFFF" stroke="#1D1D1B" stroke-width="0.5" stroke-miterlimit="10" d="M88.7,578.5c-0.2,0.1-0.3,0.1-0.5,0
		c-0.1-0.2,0-0.4,0.1-0.5c0.2,0,0.4,0.1,0.4,0.2C88.7,578.4,88.7,578.5,88.7,578.5L88.7,578.5z"/>
	<path fill="#FFFFFF" stroke="#1D1D1B" stroke-width="0.5" stroke-miterlimit="10" d="M93.9,581.2c0.1,0.4-0.1,0.8-0.5,1
		c-0.4,0-0.8,0-1.1-0.1l-2.4,0.7c-0.3-0.1-0.4-0.3-0.3-0.5c1-0.6,2.4-0.6,3.2-1.7C93.2,580.5,93.7,580.7,93.9,581.2L93.9,581.2
		L93.9,581.2z"/>
	<path fill="#FFFFFF" stroke="#1D1D1B" stroke-width="0.5" stroke-miterlimit="10" d="M85,581.4c0.9,0.2,1.8,0.6,2.6,1.1
		c0.1,0.2,0,0.4-0.2,0.5c0,0-0.1,0-0.1,0c-1.1-0.2-2.1-1-3.2-0.5c-0.4,0-0.8-0.2-0.8-0.6c-0.1-0.5,0.2-0.9,0.6-1c0,0,0.1,0,0.1,0
		C84.4,580.9,84.8,581.1,85,581.4L85,581.4L85,581.4z"/>
	<path fill="#FFFFFF" stroke="#1D1D1B" stroke-width="0.5" stroke-miterlimit="10" d="M93.3,581.4c0,0.2-0.1,0.3-0.3,0.3
		c0,0-0.1,0-0.1,0c-0.1,0-0.3-0.1-0.3-0.3C92.7,580.9,93.5,581,93.3,581.4L93.3,581.4z"/>
	<path fill="#FFFFFF" stroke="#1D1D1B" stroke-width="0.5" stroke-miterlimit="10" d="M84.4,581.6c0.1,0.2,0,0.3-0.2,0.4
		c0,0-0.1,0-0.1,0c-0.2,0-0.3-0.1-0.3-0.3c0,0,0,0,0,0C83.7,581.3,84.3,581.2,84.4,581.6L84.4,581.6z"/>
	<path fill="#FFFFFF" stroke="#1D1D1B" stroke-width="0.5" stroke-miterlimit="10" d="M89.5,583.8c0.8,0.7,1.1,2,2.3,2.3
		c0.3,0.3,0.3,0.8,0.1,1.1c-0.3,0.3-0.7,0.4-1,0.2c-0.4-0.3-0.6-0.8-0.5-1.2l-1.4-2C89,583.9,89.2,583.5,89.5,583.8L89.5,583.8
		L89.5,583.8z"/>
	<path fill="#FFFFFF" stroke="#1D1D1B" stroke-width="0.5" stroke-miterlimit="10" d="M88,584.3l-1.2,2c0.1,0.6-0.2,1.1-0.7,1.3
		c-0.4,0-0.8-0.2-1-0.6c0-0.4,0.1-0.7,0.5-0.9c1-0.2,1.1-1.5,1.9-2C87.7,583.9,87.9,584.1,88,584.3C88,584.3,88,584.3,88,584.3
		L88,584.3L88,584.3z"/>
	<path fill="#FFFFFF" stroke="#1D1D1B" stroke-width="0.5" stroke-miterlimit="10" d="M86.2,586.8c0,0.2-0.2,0.3-0.3,0.3
		c0,0,0,0,0,0c-0.2,0-0.3-0.1-0.3-0.3C85.6,586.3,86.4,586.3,86.2,586.8L86.2,586.8L86.2,586.8z"/>
	<path fill="#FFFFFF" stroke="#1D1D1B" stroke-width="0.5" stroke-miterlimit="10" d="M91.6,586.7c0,0.2-0.1,0.3-0.3,0.4
		c-0.2,0-0.3-0.2-0.3-0.3c0,0,0,0,0,0C90.9,586.4,91.6,586.3,91.6,586.7L91.6,586.7L91.6,586.7z"/>
	<path fill="#FFFFFF" stroke="#1D1D1B" stroke-width="0.5" stroke-miterlimit="10" d="M82.4,598c-0.1,0.1-0.2,0.1-0.3,0.1v-0.2
		L82.4,598L82.4,598z"/>
	<path d="M150,564.6c1.2,0,2.3-0.3,3.4-0.9c0.5-0.4,0.8-1.5,0.8-3.3v-20.9c0.1-1.1-0.1-2.3-0.8-3.3c-1-0.7-2.2-1-3.4-0.9v-0.9h13.3
		v0.9c-1.2,0-2.4,0.3-3.4,0.8c-0.6,0.5-0.9,1.5-0.9,3.1v22.6c0,0.4,0.1,0.8,0.2,1.1c0.3,0.3,0.7,0.6,1.1,0.6c0.4,0,0.7,0.1,1.1,0.1
		h2.2c4.2,0,7-0.3,8.5-1c1.5-0.7,2.9-2.4,4.3-5.3h1.1l-2.3,8.2H150V564.6z"/>
	<path d="M179.6,564.8c1.1,0,2.2-0.3,3.1-0.8c0.4-0.4,0.6-1.5,0.6-3.3v-11c0-0.7,0-1.4-0.2-2.1c-0.2-0.6-0.8-1-1.4-0.9
		c-0.2,0-0.3,0-0.5,0c-0.2,0-0.6,0.1-1.4,0.4v-0.7l1-0.3c2.7-0.9,4.5-1.5,5.6-2c0.3-0.1,0.5-0.2,0.8-0.3c0,0.1,0,0.2,0,0.3v16.5
		c0,1.7,0.2,2.8,0.6,3.3c0.8,0.6,1.8,0.9,2.9,0.8v0.6h-11.2L179.6,564.8L179.6,564.8z M183.3,534.1c0.4-0.5,1.1-0.7,1.7-0.7
		c1.3,0,2.4,1.1,2.4,2.4c0,0,0,0,0,0c0,0.6-0.2,1.2-0.7,1.7c-0.9,0.9-2.4,0.9-3.4,0c-0.5-0.4-0.7-1.1-0.7-1.7
		C182.6,535.2,182.8,534.6,183.3,534.1L183.3,534.1z"/>
	<path d="M208.7,546.2c1.7,1.7,2.6,4,2.4,6.3h-14.6c0.2,3.5,1,6.1,2.4,7.7c1.3,1.5,3.2,2.4,5.2,2.4c1.5,0,2.9-0.4,4.1-1.3
		c1.2-1,2.3-2.2,3.1-3.6l0.8,0.3c-0.7,2.1-1.9,3.9-3.5,5.4c-1.7,1.6-4,2.5-6.3,2.5c-2.6,0.1-5.2-1.1-6.7-3.3
		c-1.5-2.2-2.4-4.8-2.3-7.5c-0.1-2.9,0.9-5.7,2.7-8c1.7-2.2,4.3-3.4,7.1-3.4C205.1,543.9,207.1,544.7,208.7,546.2z M197.7,547.9
		c-0.5,1-0.9,2-1.1,3.1h9.7c-0.1-1.2-0.4-2.4-0.9-3.4c-0.8-1.3-2.2-2.1-3.8-2C200,545.6,198.4,546.5,197.7,547.9z"/>
	<path d="M213.7,564.7c1,0,1.9-0.3,2.8-0.7c0.6-0.7,0.8-1.5,0.7-2.4v-10.4c0.1-1.1-0.1-2.2-0.4-3.2c-0.2-0.6-0.9-1-1.6-1
		c-0.2,0-0.4,0-0.6,0.1l-0.8,0.1v-0.8l2.7-0.9l1.9-0.7c0.8-0.3,1.5-0.6,2.4-1c0.1,0,0.2,0,0.2,0.1c0,0.2,0,0.3,0,0.5v3.8
		c0.8-1.2,1.8-2.2,2.8-3.2c0.8-0.7,1.8-1.1,2.8-1.1c0.7,0,1.4,0.2,1.9,0.7c0.9,0.9,1,2.3,0.2,3.3c-0.3,0.4-0.9,0.6-1.4,0.6
		c-0.7,0-1.3-0.3-1.8-0.8c-0.4-0.4-0.8-0.7-1.4-0.8c-0.8,0.2-1.5,0.6-2,1.3c-0.7,0.7-1.1,1.7-1.1,2.7v10.4c-0.1,1,0.2,2,0.9,2.7
		c0.9,0.6,2,0.8,3.1,0.7v0.8h-11.3V564.7z"/>
	<path d="M242,564.9c1,0,2-0.2,2.9-0.7c0.6-0.7,0.8-1.6,0.7-2.5v-23.1c0.1-0.7-0.1-1.5-0.5-2.1c-0.5-0.3-1-0.5-1.6-0.4h-0.8
		l-0.7,0.1v-0.6l2.1-0.5c1.6-0.4,2.9-0.8,4-1.1c0.4-0.1,0.8-0.3,1.1-0.3c0.1,0,0.1,0,0.2,0c0,0.1,0,0.2,0,0.3v19.3l6.4-5.6
		c0.3-0.3,0.7-0.6,0.9-1c0.1-0.2,0.2-0.4,0.2-0.6c0-0.3-0.2-0.6-0.5-0.7c-0.6-0.1-1.2-0.2-1.9-0.2v-0.7h9.6v0.6
		c-1.4,0-2.8,0.4-4.1,1c-2.1,1.5-4.1,3.1-6,5l-1.4,1.2l4.2,5.5c1.5,2,3.1,3.9,4.9,5.6c1,0.9,2.2,1.4,3.5,1.5v0.6h-10.2v-0.6h0.8
		c0.2,0,0.5-0.1,0.7-0.2c0.2-0.1,0.3-0.3,0.3-0.5c0-0.2,0-0.3-0.1-0.5c-0.1-0.2-0.2-0.3-0.3-0.5l-7.1-9.4v8.6
		c-0.1,0.9,0.4,1.7,1.1,2.1c0.8,0.3,1.6,0.4,2.4,0.3v0.6h-11L242,564.9L242,564.9z"/>
	<path d="M270,547.1c1.9-2.1,4.6-3.2,7.5-3.2c2.8-0.1,5.5,1,7.5,3c2.1,2.1,3.1,5,3,8c0,2.9-1,5.7-2.9,7.9c-1.8,2.2-4.6,3.5-7.5,3.4
		c-2.9,0-5.6-1.2-7.5-3.4c-2-2.2-3.1-5.1-3.1-8.1C267,551.9,268.1,549.2,270,547.1z M273.7,546.5c-1.5,1.4-2.3,3.8-2.3,7.2
		c0,2.7,0.6,5.3,1.8,7.6c1.2,2.4,3,3.5,5.1,3.5c1.7,0,3.2-0.9,4-2.4c1-1.9,1.5-4,1.4-6.2c0-2.6-0.6-5.2-1.8-7.5
		c-0.8-2.1-2.9-3.5-5.1-3.5C275.7,545.3,274.5,545.7,273.7,546.5L273.7,546.5z"/>
	<path d="M290.6,564.9c0.8,0,1.7-0.2,2.4-0.6c0.7-0.7,1-1.7,0.9-2.7v-11.9c0.1-0.8-0.1-1.6-0.4-2.2c-0.4-0.4-0.9-0.6-1.5-0.5
		c-0.2,0-0.5,0-0.7,0c-0.2,0-0.4,0.1-0.6,0.2v-0.8l1.7-0.5c0.6-0.2,1.6-0.6,2.9-1.1c1.4-0.5,2.1-0.8,2.2-0.8c0.1,0,0.1,0,0.1,0.1
		c0,0,0,0,0,0c0,0.1,0,0.3,0,0.4v3.1c1.2-1.1,2.5-2.1,3.9-2.9c1.1-0.5,2.2-0.8,3.4-0.8c1.4-0.1,2.8,0.5,3.8,1.6
		c0.6,0.7,1,1.5,1.2,2.4c0.9-0.9,1.9-1.8,3-2.5c1.3-0.9,2.9-1.4,4.5-1.4c2.1-0.2,4.1,1,4.9,3c0.6,1.7,0.8,3.6,0.7,5.4v9.5
		c-0.1,0.8,0.2,1.6,0.7,2.2c0.8,0.5,1.7,0.8,2.6,0.8v0.6H316v-0.6c0.9,0,1.9-0.3,2.6-0.8c0.5-0.7,0.7-1.6,0.6-2.5v-9.9
		c0.1-1.1-0.1-2.2-0.5-3.3c-0.6-1.3-1.9-2-3.3-1.9c-1.1,0-2.1,0.4-3,1c-0.8,0.5-1.5,1.2-2.1,1.8V561c-0.1,1,0.2,2,0.7,2.8
		c0.7,0.8,1.7,1.1,2.8,1v0.6h-10.5v-0.6c1,0,2-0.4,2.8-1.1c0.4-0.5,0.6-1.8,0.6-3.9v-6.4c0.1-1.6-0.1-3.3-0.5-4.9
		c-0.4-1.4-1.7-2.4-3.2-2.3c-1,0-1.9,0.3-2.8,0.8c-0.9,0.5-1.7,1.2-2.4,2v12.6c-0.1,0.9,0.1,1.7,0.6,2.4c0.8,0.6,1.7,0.8,2.7,0.7
		v0.6h-10.5V564.9z"/>
	<path d="M327.7,564.9c0.8,0,1.7-0.2,2.4-0.6c0.7-0.7,1-1.7,0.9-2.7v-11.9c0.1-0.8-0.1-1.6-0.4-2.2c-0.4-0.4-0.9-0.6-1.5-0.5
		c-0.2,0-0.5,0-0.7,0c-0.2,0-0.4,0.1-0.6,0.2v-0.8l1.7-0.5c0.6-0.2,1.6-0.6,2.9-1.1c1.4-0.5,2.1-0.8,2.2-0.8c0.1,0,0.1,0,0.1,0.1
		c0,0,0,0,0,0c0,0.1,0,0.3,0,0.4v3.1c1.2-1.1,2.5-2.1,3.9-2.9c1.1-0.5,2.2-0.8,3.4-0.8c1.4-0.1,2.8,0.5,3.8,1.6
		c0.6,0.7,1,1.5,1.2,2.4c0.9-0.9,1.9-1.8,3-2.5c1.3-0.9,2.9-1.4,4.5-1.4c2.1-0.2,4.1,1,4.9,3c0.6,1.7,0.8,3.6,0.7,5.4v9.5
		c-0.1,0.8,0.2,1.6,0.7,2.2c0.8,0.5,1.7,0.8,2.6,0.8v0.6H353v-0.6c0.9,0,1.9-0.3,2.6-0.8c0.5-0.7,0.7-1.6,0.6-2.5v-9.9
		c0.1-1.1-0.1-2.2-0.5-3.3c-0.6-1.3-1.9-2-3.3-1.9c-1.1,0-2.1,0.4-3,1c-0.8,0.5-1.5,1.2-2.1,1.8V561c-0.1,1,0.2,2,0.7,2.8
		c0.7,0.8,1.7,1.1,2.8,1v0.6h-10.5v-0.6c1,0,2-0.4,2.8-1.1c0.4-0.5,0.6-1.8,0.6-3.9v-6.4c0.1-1.6-0.1-3.3-0.5-4.9
		c-0.4-1.4-1.7-2.4-3.2-2.3c-1,0-1.9,0.3-2.8,0.8c-0.9,0.5-1.7,1.2-2.4,2v12.6c-0.1,0.9,0.1,1.7,0.6,2.4c0.8,0.6,1.7,0.8,2.7,0.7
		v0.6h-10.5L327.7,564.9L327.7,564.9z"/>
	<path d="M371.3,544.2v14.7c0,0.9,0.1,1.7,0.4,2.5c0.6,1.2,1.8,1.9,3.1,1.8c1.1,0,2.2-0.4,3.1-1c0.6-0.5,1.2-1,1.7-1.6V548
		c0.1-0.8-0.1-1.7-0.7-2.3c-0.8-0.5-1.8-0.7-2.8-0.7v-0.8h7.4v16.2c-0.1,0.8,0.1,1.5,0.6,2.1c0.7,0.5,1.5,0.7,2.4,0.5v0.6l-1.9,0.5
		c-0.4,0.1-1.1,0.3-2,0.6c-0.4,0.1-1.3,0.5-2.6,1c-0.1,0-0.1,0-0.1-0.1c0-0.1,0-0.2,0-0.2v-3.7c-0.8,1-1.8,2-2.8,2.8
		c-1.2,0.9-2.6,1.4-4.1,1.4c-1.4,0-2.7-0.5-3.8-1.4c-1.2-0.9-1.8-2.5-1.8-4.7v-11.9c0.1-0.9-0.2-1.8-0.8-2.4
		c-0.7-0.4-1.4-0.5-2.2-0.5v-0.6H371.3L371.3,544.2z"/>
	<path d="M388.8,564.8c0.8,0,1.6-0.3,2.3-0.8c0.5-0.8,0.8-1.8,0.7-2.7v-11.7c0-0.7-0.1-1.4-0.3-2c-0.4-0.6-1.1-1-1.8-0.9h-0.4
		l-0.5,0.1V546c0.6-0.2,2.1-0.7,4.5-1.4l2.2-0.7c0.1,0,0.2,0,0.2,0.1c0,0.1,0,0.2,0,0.3v3.4c1-1,2.1-1.9,3.3-2.7
		c1.1-0.7,2.4-1.1,3.7-1.1c1,0,2,0.3,2.8,0.9c1.6,1.2,2.5,3.2,2.5,6.2v10.7c-0.1,0.9,0.2,1.7,0.7,2.4c0.6,0.5,1.4,0.8,2.2,0.8v0.6
		h-9.8v-0.7c0.8-0.1,1.6-0.4,2.3-0.9c0.6-0.9,0.8-2,0.7-3v-9.8c0-1.1-0.2-2.3-0.7-3.3c-0.6-0.9-1.6-1.4-2.7-1.3
		c-1,0-1.9,0.3-2.7,0.9c-0.7,0.5-1.3,1.1-1.9,1.8V562c-0.1,0.8,0.2,1.6,0.7,2.2c0.7,0.4,1.5,0.6,2.3,0.6v0.6h-10L388.8,564.8
		L388.8,564.8z"/>
	<path d="M428.4,546.2c1.7,1.7,2.6,4,2.4,6.3h-14.6c0.2,3.5,1,6.1,2.4,7.7c1.3,1.5,3.2,2.4,5.2,2.4c1.5,0,2.9-0.4,4.1-1.3
		c1.2-1,2.3-2.2,3.1-3.6l0.8,0.3c-0.7,2.1-1.9,3.9-3.5,5.4c-1.7,1.6-4,2.5-6.3,2.5c-2.6,0.1-5.1-1.1-6.7-3.3
		c-1.6-2.2-2.4-4.8-2.4-7.5c-0.1-2.9,0.9-5.7,2.7-8c1.7-2.2,4.3-3.4,7.1-3.4C424.8,543.9,426.9,544.7,428.4,546.2z M417.4,547.9
		c-0.5,1-0.9,2-1.1,3.1h9.7c-0.1-1.2-0.4-2.4-0.9-3.4c-0.8-1.3-2.2-2.1-3.8-2C419.7,545.6,418.2,546.5,417.4,547.9z"/>
	<path d="M156.6,583c-0.1-1.8-0.7-3.1-2.3-3.1c-1.6,0-2.6,1.5-2.6,5.7c0,4.3,0.9,5.7,2.6,5.7c1.1,0.2,2.1-0.6,2.3-1.7
		c0-0.1,0-0.3,0-0.5v-2h-2V586h3.6v6.3h-1l-0.2-1c-0.7,0.8-1.6,1.2-2.7,1.1c-2.6,0-4.2-1.8-4.2-6.9s1.6-6.9,4.2-6.9
		c2.6,0,3.7,2.2,3.9,4.3L156.6,583L156.6,583z"/>
	<path d="M160.8,578.9h3.5c2.4,0,4,1.3,4,3.4c0.1,1.5-0.9,2.9-2.4,3.3l2.5,6.7h-1.6l-2.4-6.3l-2.1,0.1v6.3h-1.6V578.9z M162.4,584.7
		h1.4c2.3,0,3-0.8,3-2.3c0-1.5-0.7-2.3-3-2.3h-1.4V584.7L162.4,584.7z"/>
	<path d="M171.5,594.5h-1.1l1.5-3.5c-0.9-1.6-1.4-3.5-1.2-5.4c0-5,1.7-6.9,4.2-6.9c0.8,0,1.5,0.2,2.1,0.6l0.9-2h1.1l-1.1,2.8
		c1,1.7,1.4,3.6,1.3,5.5c0,5-1.7,6.9-4.1,6.9c-0.8,0-1.6-0.2-2.2-0.7L171.5,594.5z M176.5,580.6c-0.4-0.5-0.9-0.7-1.5-0.7
		c-1.4,0-2.6,1.1-2.6,5.7c0,1.2,0.1,2.4,0.4,3.6l0,0L176.5,580.6z M173.3,590.4c0.4,0.5,1,0.8,1.6,0.8c1.4,0,2.6-1.1,2.6-5.7
		c0-1.3-0.1-2.5-0.4-3.8l0,0L173.3,590.4z"/>
	<path d="M183.8,578.9l3.8,9.9l0,0v-9.9h1.6v13.4h-1.7l-4.6-11.7l0,0v11.7h-1.6v-13.4H183.8L183.8,578.9z"/>
	<path d="M194.2,578.9l3.8,9.9l0,0v-9.9h1.6v13.4h-1.7l-4.6-11.7l0,0v11.7h-1.6v-13.4H194.2L194.2,578.9z"/>
	<path d="M209,578.9v1.2h-5.1v4.6h3.8v1.3h-3.8v5.2h5.3v1.2h-6.9v-13.4H209L209,578.9z"/>
	<path d="M217.8,578.9v12.2h4.8v1.2h-6.3v-13.4H217.8L217.8,578.9z"/>
	<path d="M226,578.9v13.4h-1.6v-13.4H226z"/>
	<path d="M235.7,578.9v1.2h-5.1v4.6h3.8v1.3h-3.8v5.2h5.4v1.2h-7v-13.4H235.7L235.7,578.9z"/>
	<path d="M238.2,578.9h3.5c2.4,0,4,1.3,4,3.4c0.1,1.5-0.9,2.9-2.3,3.3l2.5,6.7h-1.7l-2.4-6.4l-2.1,0.1v6.3h-1.6L238.2,578.9
		L238.2,578.9z M239.8,584.7h1.3c2.3,0,3-0.8,3-2.3c0-1.5-0.7-2.4-3-2.4h-1.4L239.8,584.7L239.8,584.7z"/>
	<path d="M252,587.9V587h10.2v0.9H252z"/>
	<path d="M268.4,578.9h6.3v1.2H270v4.6h3.5v1.3H270v6.4h-1.6V578.9z"/>
	<path d="M280.3,592.5c-2.5,0-4.1-1.9-4.1-6.9s1.7-6.9,4.1-6.9c2.5,0,4.1,1.9,4.1,6.9S282.7,592.5,280.3,592.5z M280.3,579.9
		c-1.4,0-2.6,1.1-2.6,5.7c0,4.6,1.1,5.7,2.6,5.7s2.6-1.1,2.6-5.7C282.8,581.1,281.7,579.9,280.3,579.9z"/>
	<path d="M286.9,578.9h3.4c2.4,0,4,1.3,4,3.4c0.1,1.5-0.9,2.9-2.4,3.3l2.5,6.7h-1.7l-2.4-6.4l-2.1,0.1v6.3h-1.5V578.9z M288.5,584.7
		h1.4c2.3,0,3-0.8,3-2.3c0-1.5-0.7-2.3-3-2.3h-1.4V584.7L288.5,584.7z"/>
	<path d="M306.2,578.9l3.2,13.4h-1.6l-0.9-4h-3.7l-0.9,4h-1.6l3.3-13.4H306.2L306.2,578.9z M303.5,587.1h3.3l-1.6-7.2l0,0
		L303.5,587.1z"/>
	<path d="M312.8,578.9v12.2h4.8v1.2h-6.3v-13.4H312.8L312.8,578.9z"/>
	<path d="M320.9,578.9v12.2h4.8v1.2h-6.3v-13.4H320.9z"/>
	<path d="M334.1,578.9v1.2H329v4.6h3.8v1.3H329v5.2h5.4v1.2h-7v-13.4H334.1L334.1,578.9z"/>
	<path d="M343.1,578.9v13.4h-1.6v-13.4H343.1z"/>
	<path d="M348.3,578.9l3.8,9.9l0,0v-9.9h1.6v13.4H352l-4.6-11.7l0,0v11.7h-1.6v-13.4H348.3L348.3,578.9z"/>
	<path d="M358.7,578.9l3.8,9.9l0,0v-9.9h1.6v13.4h-1.7l-4.6-11.7l0,0v11.7h-1.6v-13.4H358.7L358.7,578.9z"/>
	<path d="M366.8,578.9h3.9c1.7-0.2,3.3,1.1,3.4,2.8c0,0.2,0,0.3,0,0.5c0.1,1.4-0.9,2.7-2.3,3l0,0c1.6,0.3,2.7,1.8,2.6,3.4
		c0,2.5-1.5,3.7-4.7,3.7h-3L366.8,578.9L366.8,578.9z M368.4,584.6h0.9c2.3,0,3.3-0.6,3.3-2.5c0-1.5-0.7-2.1-2.6-2.1h-1.6
		L368.4,584.6L368.4,584.6z M368.4,591h1.6c1.9,0,2.9-0.8,2.9-2.5c0-1.7-0.9-2.7-2.9-2.7h-1.6V591z"/>
	<path d="M377.8,578.9l2.5,5.9l2.4-5.9h1.7l-3.4,7.7v5.7h-1.5v-5.7l-3.4-7.7H377.8L377.8,578.9z"/>
	<path d="M392.5,583c-0.1-1.8-0.7-3.1-2.3-3.1c-1.6,0-2.6,1.5-2.6,5.7c0,4.3,0.9,5.7,2.6,5.7c1.1,0.2,2.1-0.6,2.3-1.7
		c0-0.1,0-0.3,0-0.5v-2h-2V586h3.6v6.3h-1l-0.2-1c-0.7,0.8-1.6,1.2-2.7,1.1c-2.6,0-4.2-1.8-4.2-6.9s1.6-6.9,4.2-6.9
		c2.6,0,3.7,2.2,3.9,4.3L392.5,583L392.5,583z"/>
	<path d="M402.8,583c-0.1-1.8-0.7-3.1-2.3-3.1c-1.6,0-2.6,1.5-2.6,5.7c0,4.3,0.9,5.7,2.6,5.7c1.1,0.2,2.1-0.6,2.3-1.7
		c0-0.1,0-0.3,0-0.5v-2h-2V586h3.6v6.3h-1l-0.2-1c-0.7,0.8-1.6,1.2-2.7,1.1c-2.6,0-4.2-1.8-4.2-6.9s1.6-6.9,4.2-6.9
		c2.6,0,3.7,2.2,3.9,4.3L402.8,583L402.8,583z"/>
	<path d="M413.9,578.9v1.2h-5.1v4.6h3.8v1.3h-3.8v5.2h5.4v1.2h-7v-13.4H413.9z"/>
	<path d="M416.3,578.9h3.5c2.4,0,4,1.3,4,3.4c0.1,1.5-0.9,2.9-2.4,3.3l2.5,6.7h-1.7l-2.4-6.4l-2.1,0.1v6.3h-1.6V578.9z M417.9,584.7
		h1.4c2.3,0,3-0.8,3-2.3c0-1.5-0.7-2.3-3-2.3h-1.4V584.7L417.9,584.7z"/>
	<path d="M433.4,578.9v1.2h-5.1v4.6h3.8v1.3h-3.8v5.2h5.4v1.2h-7v-13.4H433.4L433.4,578.9z"/>
</g>
</svg>
